<svg xmlns="http://www.w3.org/2000/svg" xmlns:xlink="http://www.w3.org/1999/xlink"><defs>
<clipPath id="clip0_196_11006">
<rect width="64" height="64" fill="white" transform="translate(0.500031)"/>
</clipPath>
</defs><symbol id="arrow-left-purple" viewBox="1 0 16.5 14">
<path d="M8 1L2 7M2 7L8 13M2 7H16.5" stroke="#251664" stroke-width="2" stroke-linecap="round"/>
</symbol><symbol id="arrow-left-tr" viewBox="1 0 16.5 14">
<path d="M8 1L2 7M2 7L8 13M2 7H16.5" stroke="currentColor" stroke-width="2" stroke-linecap="round"/>
</symbol><symbol id="arrow-left-white" viewBox="1 0 16.5 14">
<path d="M8 1L2 7M2 7L8 13M2 7H16.5" stroke="#ffffff" stroke-width="2" stroke-linecap="round"/>
</symbol><symbol id="arrow-right-purple" viewBox="0 0 16.5 14">
<path d="M9.5 1L15.5 7M15.5 7L9.5 13M15.5 7H1" stroke="#251664" stroke-width="2" stroke-linecap="round"/>
</symbol><symbol id="arrow-right-white" viewBox="0 0 16.5 14">
<path d="M9.5 1L15.5 7M15.5 7L9.5 13M15.5 7H1" stroke="#ffffff" stroke-width="2" stroke-linecap="round"/>
</symbol><symbol id="arrow-up" viewBox="5.25 3.75 14 16.5">
<path d="M6.25 10.75L12.25 4.75M12.25 4.75L18.25 10.75M12.25 4.75V19.25" stroke="#251664" stroke-width="2" stroke-linecap="round"/>
</symbol><symbol id="bill" viewBox="4 7 57 49">
<path d="M22.1051 55C25.2761 55 27.8469 52.4107 27.8469 49.2162V46.5983H60V49.2162C60 52.4104 57.4295 55 54.2581 55H22.1499C19.0205 55 16.4837 52.4447 16.4837 49.2924C16.4837 48.0705 16.4837 12.6202 16.4837 13.7835C16.4837 10.5893 13.9132 8 10.7418 8M10.7418 8C7.57054 8 5 10.5893 5 13.7835V16.4014H16.4834M10.7418 8L42.85 8.0003C45.9795 8.0003 48.5163 10.5556 48.5163 13.7079V46.5983M22.2255 14.3926H43.4397M22.2255 17.6803H38.1815M22.2255 25.0162H30.7475M22.2255 29.5821H30.7475M22.2255 34.148H30.7475M22.2255 38.7139H30.7475M40.6291 31.0739C38.3091 31.0739 36.4285 32.9683 36.4285 35.3052C36.4285 37.6422 38.3091 39.5363 40.6291 39.5363C42.9491 39.5363 44.8297 37.6419 44.8297 35.3052C44.8297 32.9686 42.9491 31.0739 40.6291 31.0739Z" stroke="#251664" stroke-width="2" stroke-miterlimit="10" stroke-linecap="round" stroke-linejoin="round"/>
</symbol><symbol id="card" viewBox="1 5 63 54">
<path d="M52.2517 26.365L41.9379 8.15764C40.7691 6.09425 38.1803 5.38746 36.1561 6.5787L4.11696 25.4319C2.09247 26.6231 1.39901 29.2617 2.56779 31.3248L12.9697 49.6879C13.9008 51.3315 15.8228 52.0444 17.539 51.4687M3.48898 32.9512L42.859 9.78405M6.59751 38.4391L17.539 32.0006M27.1162 26.365L45.9676 15.272M22.1243 45.9173H28.0341M22.1243 51.2497H29.2963M22.1243 54.2453H33.7299M30.7749 45.9173H36.6846M39.4257 45.9173H45.3354M48.0762 45.9173H53.9859M58.7675 58H21.7719C19.4344 58 17.5393 56.0686 17.5393 53.6861V30.6789C17.5393 28.2964 19.4344 26.365 21.7719 26.365H58.7675C61.105 26.365 63 28.2964 63 30.6789V53.6861C62.9997 56.0686 61.105 58 58.7675 58ZM30.9423 36.93V33.2154C30.9423 32.2777 30.1965 31.5179 29.2768 31.5179H23.7901C22.8701 31.5179 22.1246 32.278 22.1246 33.2154V36.93C22.1246 37.8677 22.8704 38.6277 23.7901 38.6277H29.2768C30.1965 38.6274 30.9423 37.8677 30.9423 36.93Z" stroke="#251664" stroke-width="2" stroke-miterlimit="10" stroke-linecap="round" stroke-linejoin="round"/>
</symbol><symbol id="cart" viewBox="1 3 20 19">
<path d="M7 19C6.70333 19 6.41332 19.088 6.16664 19.2528C5.91997 19.4176 5.72771 19.6519 5.61418 19.926C5.50065 20.2001 5.47094 20.5017 5.52882 20.7926C5.5867 21.0836 5.72956 21.3509 5.93934 21.5607C6.14912 21.7704 6.41639 21.9133 6.70736 21.9712C6.99834 22.0291 7.29994 21.9993 7.57403 21.8858C7.84811 21.7723 8.08238 21.58 8.2472 21.3334C8.41203 21.0867 8.5 20.7967 8.5 20.5C8.5 20.1022 8.34196 19.7206 8.06066 19.4393C7.77936 19.158 7.39782 19 7 19ZM18 19C17.7033 19 17.4133 19.088 17.1666 19.2528C16.92 19.4176 16.7277 19.6519 16.6142 19.926C16.5007 20.2001 16.4709 20.5017 16.5288 20.7926C16.5867 21.0836 16.7296 21.3509 16.9393 21.5607C17.1491 21.7704 17.4164 21.9133 17.7074 21.9712C17.9983 22.0291 18.2999 21.9993 18.574 21.8858C18.8481 21.7723 19.0824 21.58 19.2472 21.3334C19.412 21.0867 19.5 20.7967 19.5 20.5C19.5 20.1022 19.342 19.7206 19.0607 19.4393C18.7794 19.158 18.3978 19 18 19ZM19 17.9983V15.9983L8.262 15.9891L7.9406 14.6967L21.0006 12.3632L21 5H5.5287L5.0312 3H1V5H3.4677L6.6982 17.9878L19 17.9983ZM19 7V10.6888L7.4567 12.7514L6.0262 7H19Z" fill="currentColor"/>
</symbol><symbol id="cash" viewBox="3 4 58 55">
<path d="M35.8448 50.0443V29.1973M35.8448 50.0443L22.018 58L4 47.633L10.0388 44.1584M35.8448 50.0443L60 36.1462L53.9612 32.6716M35.8448 29.1973L22.018 37.153L4.11704 26.8535L42.0991 5L60 15.2996L47.1197 22.7106M35.8448 29.1973L17.9439 18.8981L29.2188 12.411L47.1197 22.7106M47.1197 22.7106L47.1194 43.5572M35.8448 36.1462L22.018 44.1019L4 33.7349L10.0388 30.2603M47.1194 29.6591L59.9997 22.2485L53.9609 18.7739M35.8448 43.1237L22.018 51.0794L4 40.7124L10.0388 37.2378M47.1194 36.6362L59.9997 29.2256L53.9609 25.751" stroke="#251664" stroke-width="2" stroke-miterlimit="10" stroke-linecap="round" stroke-linejoin="round"/>
</symbol><symbol id="catalog" viewBox="6 6 12 12">
<rect x="6" y="6" width="4" height="4" rx="1" fill="currentColor"/>
<rect x="6" y="14" width="4" height="4" rx="1" fill="currentColor"/>
<rect x="14" y="6" width="4" height="4" rx="1" fill="currentColor"/>
<rect x="14" y="14" width="4" height="4" rx="1" fill="currentColor"/>
</symbol><symbol id="check" viewBox="5 7 14 9.56">
<path d="M6 11.59L9.54541 15.2566C9.93847 15.663 10.5901 15.663 10.9832 15.2566L18 8" stroke="#251664" stroke-width="2" stroke-linecap="round"/>
</symbol><symbol id="comparison" viewBox="5 5 14 14">
<path d="M5 9.2H8V19H5V9.2ZM16.2 13H19V19H16.2V13ZM10.6 5H13.4V19H10.6V5Z" fill="#251664"/>
</symbol><symbol id="cross-prime" viewBox="5 5 14.28 14.14">
<rect x="5.14209" y="17.7279" width="18" height="2" rx="1" transform="rotate(-45 5.14209 17.7279)" fill="#251664"/>
<rect width="18" height="2" rx="1" transform="matrix(-0.707107 -0.707107 -0.707107 0.707107 19.1421 17.7279)" fill="#251664"/>
</symbol><symbol id="cross-white" viewBox="5 5 14.28 14.14">
<rect x="5.14209" y="17.7279" width="18" height="2" rx="1" transform="rotate(-45 5.14209 17.7279)" fill="#ffffff"/>
<rect width="18" height="2" rx="1" transform="matrix(-0.707107 -0.707107 -0.707107 0.707107 19.1421 17.7279)" fill="#ffffff"/>
</symbol><symbol id="cross" viewBox="5 5 14.28 14.14">
<rect x="5.14209" y="17.7279" width="18" height="2" rx="1" transform="rotate(-45 5.14209 17.7279)" fill="currentColor"/>
<rect width="18" height="2" rx="1" transform="matrix(-0.707107 -0.707107 -0.707107 0.707107 19.1421 17.7279)" fill="currentColor"/>
</symbol><symbol id="doc" viewBox="4 2 16 20">
<path d="M15.4141 2H4V22H20V6.5859L15.4141 2ZM18.5 20.5H5.5V3.5H14.7927L18.5 7.2073V20.5ZM8 14.475H13V13.025H8V14.475ZM8 10.975H16V9.525H8V10.975Z" fill="currentColor"/>
</symbol><symbol id="drop-down-gray" viewBox="5 9 14 8">
<path d="M18 10L12 16L6 10" stroke="#626262" stroke-width="2" stroke-linecap="round"/>
</symbol><symbol id="drop-down" viewBox="5 9 14 8">
<path d="M18 10L12 16L6 10" stroke="#251664" stroke-width="2" stroke-linecap="round"/>
</symbol><symbol id="drop-up-gray" viewBox="5 7 14 8">
<path d="M18 14L12 8L6 14" stroke="#626262" stroke-width="2" stroke-linecap="round"/>
</symbol><symbol id="drop-up" viewBox="5 7 14 8">
<path d="M18 14L12 8L6 14" stroke="#251664" stroke-width="2" stroke-linecap="round"/>
</symbol><symbol id="evrika" viewBox="0 0 24 24">
<path d="M11.8937 1.63054e-05C6.98184 0.00812714 2.99063 3.96042 3.00002 8.81186C3.00354 9.81761 3.17594 10.784 3.49144 11.6843C4.04737 13.2589 5.04311 14.6308 6.3309 15.6551C7.50141 16.6064 8.31419 17.969 8.54407 19.517H8.54641C8.55932 19.6317 8.63555 19.7267 8.74111 19.7638C8.74345 19.765 8.7458 19.765 8.75049 19.765C8.75753 19.7684 8.76574 19.7684 8.7716 19.7719C9.57618 19.9944 10.4159 20.1369 11.2803 20.1844C11.4961 20.196 11.7108 20.2006 11.9289 20.2006C12.1424 20.2006 12.3511 20.1937 12.5623 20.1821C13.4313 20.1346 14.277 19.9921 15.0851 19.7627H15.0874C15.0874 19.7627 15.0897 19.7627 15.0897 19.7615C15.1883 19.7291 15.2657 19.6456 15.2891 19.5471C15.2891 19.5309 15.2915 19.517 15.2915 19.5031C15.5073 18.0316 16.2509 16.7269 17.3252 15.7826C17.4577 15.6655 17.5973 15.552 17.7427 15.4454C18.9144 14.4396 19.8198 13.1373 20.3347 11.6553C20.6514 10.7538 20.8203 9.78632 20.8179 8.78405C20.8086 3.93493 16.8068 -0.00925323 11.8937 1.63054e-05ZM15.6386 13.7351C14.4623 14.7432 13.5568 16.0467 13.0408 17.5287C12.954 17.5403 12.8684 17.5507 12.7792 17.5577C12.5001 17.5855 12.2139 17.6005 11.9242 17.6005C11.6263 17.6005 11.3331 17.5866 11.0446 17.5577C10.9601 17.5507 10.8734 17.5403 10.7877 17.531C10.233 15.9587 9.23723 14.5845 7.95061 13.559V13.5567C6.56313 12.4305 5.67646 10.7202 5.67177 8.80955C5.6659 5.41226 8.45962 2.64415 11.9008 2.63836C15.3384 2.6314 18.1415 5.39141 18.1462 8.78869C18.1485 10.6217 17.3393 12.2694 16.0526 13.4038C15.9201 13.5173 15.7817 13.6309 15.6386 13.7351Z" fill="#E85C3D"/>
<path d="M14.9502 7.79688C14.3861 7.79688 13.9252 8.22791 13.8841 8.77365V8.79683C13.8841 8.82811 13.8841 8.86287 13.8818 8.893C13.8794 8.89532 13.8794 8.89532 13.8818 8.89532C13.8302 9.92655 12.9658 10.7481 11.9137 10.7481C10.8429 10.7515 9.97148 9.91149 9.93512 8.86519V8.84318C9.92222 8.27078 9.44839 7.80962 8.86431 7.81194C8.27437 7.81194 7.79937 8.28469 7.79937 8.86751C7.83338 11.0783 9.67123 12.8638 11.9161 12.8604C14.1421 12.8557 15.9542 11.098 16.0187 8.9127C16.021 8.90806 16.021 8.90343 16.021 8.89647V8.83159C16.0093 8.25572 15.5331 7.79572 14.9502 7.79688Z" fill="#E85C3D"/>
<path d="M15.1249 20.7418C15.1167 20.7418 15.1097 20.7418 15.1015 20.7441C15.1015 20.7441 15.0944 20.7452 15.0944 20.7464C14.2875 20.955 13.4501 21.0882 12.5881 21.1322C12.3711 21.1438 12.1506 21.1519 11.9278 21.1519C11.7014 21.1519 11.4739 21.1473 11.2522 21.1334C10.3878 21.0917 9.54687 20.9596 8.73878 20.751C8.73526 20.751 8.73056 20.7476 8.72587 20.7476C8.71766 20.7464 8.7118 20.7452 8.70476 20.7452C8.64964 20.7452 8.60624 20.7869 8.59686 20.8379C8.59686 20.8507 8.59921 20.8623 8.60156 20.8727V20.875C8.66137 22.1658 9.4765 23.2631 10.62 23.7416C11.0188 23.9085 11.4586 24 11.9184 24C12.3816 23.9977 12.8226 23.9038 13.2261 23.7335C14.3661 23.248 15.1754 22.1473 15.2258 20.8576C15.2282 20.853 15.2282 20.8518 15.2282 20.8484V20.8449C15.2282 20.7858 15.1812 20.7418 15.1249 20.7418Z" fill="#E85C3D"/>
</symbol><symbol id="experience" viewBox="-0.5 0 66 64">
<g clip-path="url(#clip0_196_11006)">
<path d="M17.1573 37.3676L15.3773 36.43L6.18311 41.2563L7.93866 31.0331L0.500031 23.7938L10.7802 22.3019L15.3773 13L19.9744 22.3019L21.9096 22.5791M47.8427 37.3676L49.6228 36.43L58.817 41.2563L57.0614 31.0331L64.5 23.7938L54.2199 22.3019L49.6228 13L45.0257 22.3019L43.0905 22.5791M32.5 13L38.7057 25.5547L52.5786 27.5684L42.5434 37.335L44.9114 51.137L32.5 44.6232L20.0887 51.137L22.4566 37.335L12.4214 27.5684L26.2944 25.5547L32.5 13Z" stroke="#251664" stroke-width="2" stroke-linecap="round" stroke-linejoin="round"/>
</g>

</symbol><symbol id="fav-active" viewBox="0 0 24 24">
<mask id="path-1-inside-1_30_13276" fill="white">
<path d="M12 2L15.0776 8.76399L22.4616 9.60081L16.9797 14.618L18.4656 21.8992L12 18.236L5.53431 21.8992L7.02022 14.618L1.53833 9.60081L8.92231 8.76399L12 2Z"/>
</mask>
<path d="M12 2L15.0776 8.76399L22.4616 9.60081L16.9797 14.618L18.4656 21.8992L12 18.236L5.53431 21.8992L7.02022 14.618L1.53833 9.60081L8.92231 8.76399L12 2Z" fill="#030303"/>
<path d="M12 2L13.8204 1.1717L12 -2.82918L10.1795 1.1717L12 2ZM15.0776 8.76399L13.2572 9.59229L13.7265 10.6237L14.8524 10.7513L15.0776 8.76399ZM22.4616 9.60081L23.8119 11.0762L27.0544 8.10851L22.6868 7.61353L22.4616 9.60081ZM16.9797 14.618L15.6294 13.1427L14.7935 13.9077L15.0201 15.0179L16.9797 14.618ZM18.4656 21.8992L17.4797 23.6393L21.3041 25.8061L20.4252 21.4993L18.4656 21.8992ZM12 18.236L12.9858 16.4959L12 15.9373L11.0141 16.4959L12 18.236ZM5.53431 21.8992L3.5747 21.4993L2.69579 25.8061L6.5202 23.6393L5.53431 21.8992ZM7.02022 14.618L8.97983 15.0179L9.2064 13.9077L8.37052 13.1427L7.02022 14.618ZM1.53833 9.60081L1.31311 7.61353L-3.05449 8.10851L0.188031 11.0762L1.53833 9.60081ZM8.92231 8.76399L9.14753 10.7513L10.2734 10.6237L10.7427 9.59229L8.92231 8.76399ZM10.1795 2.8283L13.2572 9.59229L16.898 7.93569L13.8204 1.1717L10.1795 2.8283ZM14.8524 10.7513L22.2364 11.5881L22.6868 7.61353L15.3028 6.77671L14.8524 10.7513ZM21.1113 8.12545L15.6294 13.1427L18.33 16.0934L23.8119 11.0762L21.1113 8.12545ZM15.0201 15.0179L16.506 22.2991L20.4252 21.4993L18.9393 14.2181L15.0201 15.0179ZM19.4515 20.1591L12.9858 16.4959L11.0141 19.9761L17.4797 23.6393L19.4515 20.1591ZM11.0141 16.4959L4.54843 20.1591L6.5202 23.6393L12.9858 19.9761L11.0141 16.4959ZM7.49392 22.2991L8.97983 15.0179L5.06061 14.2181L3.5747 21.4993L7.49392 22.2991ZM8.37052 13.1427L2.88863 8.12545L0.188031 11.0762L5.66992 16.0934L8.37052 13.1427ZM1.76355 11.5881L9.14753 10.7513L8.69709 6.77671L1.31311 7.61353L1.76355 11.5881ZM10.7427 9.59229L13.8204 2.8283L10.1795 1.1717L7.10189 7.93569L10.7427 9.59229Z" fill="#030303" mask="url(#path-1-inside-1_30_13276)"/>
</symbol><symbol id="fav" viewBox="0 0 24 24">
<path d="M12 4.41459L14.1674 9.17814L14.4021 9.69383L14.965 9.75763L20.1652 10.347L16.3046 13.8803L15.8866 14.2628L15.9999 14.818L17.0464 19.9457L12.4929 17.3659L12 17.0867L11.5071 17.3659L6.95362 19.9457L8.00007 14.818L8.11336 14.2628L7.69542 13.8803L3.83479 10.347L9.03497 9.75763L9.59792 9.69383L9.83257 9.17814L12 4.41459Z" stroke="#251664" stroke-width="2"/>
</symbol><symbol id="fb" viewBox="6 0 12 24">
<path fill-rule="evenodd" clip-rule="evenodd" d="M13.7891 24V13.0527H17.3269L17.8571 8.78618H13.788V6.06218C13.788 4.82727 14.1196 3.98509 15.8247 3.98509L18 3.984V0.168C17.6236 0.116728 16.332 0 14.8298 0C11.6945 0 9.54655 1.98873 9.54655 5.64V8.78618H6V13.0516H9.54655V24H13.7891Z" fill="currentColor"/>
</symbol><symbol id="google" viewBox="0 0 24 24">
<path d="M11.8333 9.83333V14H17.5C16.6667 16.25 14.5 17.75 12 17.75C8.75 17.75 6.16667 15.1667 6.16667 11.9167C6.16667 8.66666 8.75 6.08333 12 6.08333C13.25 6.08333 14.4167 6.5 15.4167 7.16667L15.75 7.41667L18.25 4.16667L17.9167 3.91667C16.1667 2.66667 14.1667 2 12 2C6.5 2 2 6.5 2 12C2 17.5 6.5 22 12 22C17.5 22 22 17.5 22 12V9.91667H11.8333V9.83333Z" fill="currentColor"/>
</symbol><symbol id="logistic" viewBox="10 1 44.56 62">
<path d="M32.0817 28.9225C32.106 28.9721 33.696 32.208 33.5948 32.0013C33.9562 32.8729 34.895 33.3768 35.9568 33.1405L47.0507 30.6886C48.1081 30.4517 48.9306 29.4288 48.8333 28.367C48.7419 27.3685 47.8007 26.7557 46.7609 26.8987L37.5054 28.1705L32.9329 17.3859C32.3381 15.9832 30.9086 15.1704 29.2797 15.308L24.6439 15.7005C22.3725 15.8931 20.4328 17.8475 20.2961 20.0815L18.1613 46.1815L11.3154 58.7652C9.89418 61.5279 13.6296 63.4044 15.4968 60.6456L22.6118 49.9485L24.7655 42.6595C24.9644 41.9868 25.8954 41.9309 26.1731 42.5754L28.9144 48.933L29.9207 59.8747C30.2174 62.7497 34.7354 62.7449 34.8448 59.6339V47.4086L31.5316 37.8351L31.8648 31.5742M31.6348 6.09973L31.3375 9.58519C30.8512 14.3712 24.0806 14.3372 23.6137 9.58519L23.3851 6.38479C23.2246 4.12795 24.9269 2.16051 27.1838 2H36.7704C36.7704 3.77045 35.3404 5.19316 33.57 5.19316H29.8963M51.0318 24.3106H39.8026C38.4053 24.3106 37.2724 23.1778 37.2724 21.7804V13.9773C37.2724 12.5799 38.4053 11.4471 39.8026 11.4471H51.0318C52.4292 11.4471 53.562 12.5799 53.562 13.9773V21.7804C53.562 23.1778 52.4292 24.3106 51.0318 24.3106Z" stroke="#251664" stroke-width="2" stroke-miterlimit="10" stroke-linecap="round" stroke-linejoin="round"/>
</symbol><symbol id="menu" viewBox="2 7 20 10">
<rect x="2" y="7" width="20" height="2" rx="1" fill="currentColor"/>
<rect x="2" y="15" width="20" height="2" rx="1" fill="currentColor"/>
</symbol><symbol id="minus" viewBox="4 11 16 2">
<rect x="4" y="11" width="16" height="2" rx="1" fill="currentColor"/>
</symbol><symbol id="ok" viewBox="5 0 14.65 24">
<path d="M19.1747 14.7692C19.7366 14.2074 19.8169 13.4047 19.3353 12.602C18.9339 11.9599 18.2115 11.6388 17.4089 11.7993C17.0878 11.8796 16.7667 12.0401 16.4456 12.2809C13.9574 13.9666 10.5861 13.8863 8.09782 12.2007C7.93729 12.1204 7.77675 12.0401 7.61621 11.9599C6.73327 11.5585 5.85034 11.7191 5.36873 12.5218C4.80686 13.3244 4.88712 14.2074 5.60953 14.9298C5.77006 15.0903 5.9306 15.1706 6.01086 15.3311L6.09114 15.4114C7.21488 16.2943 8.57943 16.8562 10.3453 17.097L9.30184 18.1405C8.4189 19.0234 7.45569 19.9866 6.57275 20.8696C6.33194 21.1104 6.01086 21.5117 6.01086 22.0736C6.01086 22.796 6.41221 23.5184 7.13462 23.8395C7.37542 24 7.61622 24 7.85702 24C8.25836 24 8.73996 23.8395 9.06103 23.4381C10.265 22.2341 11.2283 21.2709 12.1915 20.3077C12.2717 20.2274 12.2717 20.2274 12.2717 20.2274C12.2717 20.2274 12.352 20.2274 12.352 20.3077C12.9941 21.0301 13.7166 21.6722 14.3587 22.3946C14.6798 22.7157 15.0008 23.0368 15.3219 23.3579C15.7232 23.7592 16.0443 23.9197 16.5259 23.9197C17.2483 24 18.051 23.5184 18.3721 22.796C18.6931 22.1538 18.5326 21.3512 17.9707 20.8696C17.1681 20.0669 16.3654 19.1839 15.4824 18.3813L14.1179 17.0167C14.8403 16.9365 15.643 16.7759 16.3654 16.4549C17.5694 16.0535 18.4523 15.4916 19.1747 14.7692Z" fill="currentColor"/>
<path d="M12.2717 12.5217C15.7232 12.5217 18.5326 9.79263 18.5326 6.34113C18.5326 4.65551 17.8905 3.05017 16.6864 1.84616C15.4824 0.642143 13.9574 0 12.352 0C8.9005 0 6.1714 2.80936 6.09114 6.1806C6.09114 7.86622 6.73328 9.3913 7.93729 10.5953C9.06104 11.8796 10.5861 12.5217 12.2717 12.5217ZM10.5058 4.49499C10.9875 4.01338 11.6296 3.77257 12.2717 3.77257C13.7165 3.77257 14.76 4.89632 14.76 6.26087C14.76 7.70569 13.6363 8.74916 12.2717 8.74916C10.8269 8.74916 9.78345 7.62542 9.78345 6.26087C9.78345 5.61873 10.0242 4.97659 10.5058 4.49499Z" fill="currentColor"/>
<path d="M19.1747 14.7692C19.7366 14.2074 19.8169 13.4047 19.3353 12.602C18.9339 11.9599 18.2115 11.6388 17.4089 11.7993C17.0878 11.8796 16.7667 12.0401 16.4456 12.2809C13.9574 13.9666 10.5861 13.8863 8.09782 12.2007C7.93729 12.1204 7.77675 12.0401 7.61621 11.9599C6.73327 11.5585 5.85034 11.7191 5.36873 12.5218C4.80686 13.3244 4.88712 14.2074 5.60953 14.9298C5.77006 15.0903 5.9306 15.1706 6.01086 15.3311L6.09114 15.4114C7.21488 16.2943 8.57943 16.8562 10.3453 17.097L9.30184 18.1405C8.4189 19.0234 7.45569 19.9866 6.57275 20.8696C6.33194 21.1104 6.01086 21.5117 6.01086 22.0736C6.01086 22.796 6.41221 23.5184 7.13462 23.8395C7.37542 24 7.61622 24 7.85702 24C8.25836 24 8.73996 23.8395 9.06103 23.4381C10.265 22.2341 11.2283 21.2709 12.1915 20.3077C12.2717 20.2274 12.2717 20.2274 12.2717 20.2274C12.2717 20.2274 12.352 20.2274 12.352 20.3077C12.9941 21.0301 13.7166 21.6722 14.3587 22.3946C14.6798 22.7157 15.0008 23.0368 15.3219 23.3579C15.7232 23.7592 16.0443 23.9197 16.5259 23.9197C17.2483 24 18.051 23.5184 18.3721 22.796C18.6931 22.1538 18.5326 21.3512 17.9707 20.8696C17.1681 20.0669 16.3654 19.1839 15.4824 18.3813L14.1179 17.0167C14.8403 16.9365 15.643 16.7759 16.3654 16.4549C17.5694 16.0535 18.4523 15.4916 19.1747 14.7692Z" fill="currentColor"/>
</symbol><symbol id="percent" viewBox="5 5 14 14">
<path fill-rule="evenodd" clip-rule="evenodd" d="M8.0625 5C6.372 5 5 6.372 5 8.0625C5 9.753 6.372 11.125 8.0625 11.125C9.753 11.125 11.125 9.753 11.125 8.0625C11.125 6.372 9.753 5 8.0625 5ZM8.0625 6.75C7.338 6.75 6.75 7.338 6.75 8.0625C6.75 8.787 7.338 9.375 8.0625 9.375C8.787 9.375 9.375 8.787 9.375 8.0625C9.375 7.338 8.787 6.75 8.0625 6.75ZM15.9375 12.875C14.247 12.875 12.875 14.247 12.875 15.9375C12.875 17.628 14.247 19 15.9375 19C17.628 19 19 17.628 19 15.9375C19 14.247 17.628 12.875 15.9375 12.875ZM15.9375 14.625C15.213 14.625 14.625 15.213 14.625 15.9375C14.625 16.662 15.213 17.25 15.9375 17.25C16.662 17.25 17.25 16.662 17.25 15.9375C17.25 15.213 16.662 14.625 15.9375 14.625ZM7.04518 18.1923C6.70627 18.5312 6.15691 18.5313 5.81282 18.1872C5.47111 17.8455 5.4758 17.2868 5.80774 16.9548L16.9548 5.80774C17.2937 5.46884 17.8431 5.46872 18.1872 5.81282C18.5289 6.15452 18.5242 6.71324 18.1923 7.04518L7.04518 18.1923Z" fill="currentColor"/>
</symbol><symbol id="phone" viewBox="3 3 18 18">
<path d="M6.54 5C6.6 5.89 6.75 6.76 6.99 7.59L5.79 8.79C5.38 7.59 5.12 6.32 5.03 5H6.54ZM16.4 17.02C17.25 17.26 18.12 17.41 19 17.47V18.96C17.68 18.87 16.41 18.61 15.2 18.21L16.4 17.02ZM7.5 3H4C3.45 3 3 3.45 3 4C3 13.39 10.61 21 20 21C20.55 21 21 20.55 21 20V16.51C21 15.96 20.55 15.51 20 15.51C18.76 15.51 17.55 15.31 16.43 14.94C16.33 14.9 16.22 14.89 16.12 14.89C15.86 14.89 15.61 14.99 15.41 15.18L13.21 17.38C10.38 15.93 8.06 13.62 6.62 10.79L8.82 8.59C9.1 8.31 9.18 7.92 9.07 7.57C8.7 6.45 8.5 5.25 8.5 4C8.5 3.45 8.05 3 7.5 3Z" fill="currentColor"/>
</symbol><symbol id="plus" viewBox="4 4 16 16">
<rect x="4" y="11" width="16" height="2" rx="1" fill="currentColor"/>
<rect x="11" y="4" width="2" height="16" rx="1" fill="currentColor"/>
</symbol><symbol id="price" viewBox="13.5 1 37.9 62">
<path d="M29.8897 50.4837V43.2725H46.2642V38.4306H29.8897V35.706H34.9262C44.1437 35.706 50.4029 30.5141 50.4029 19.2303C50.4029 5.66249 43.7471 2 34.0714 2H21.3527V25.8714M23.7542 38.4306H14.5V43.2725H21.3527V52.2366H15.2573L25.5677 62L35.878 52.2366H28.9388M23.0212 28.0236H14.5V35.7066H21.3527V38.4313M34.5019 28.0236H29.8897V9.68298H33.8146C40.8324 9.68298 41.8681 12.643 41.8681 19.1449C41.8681 23.5727 41.3862 28.0236 34.5019 28.0236Z" stroke="#251664" stroke-width="2" stroke-miterlimit="10" stroke-linecap="round" stroke-linejoin="round"/>
</symbol><symbol id="safe" viewBox="9 1 45.44 62">
<path d="M39.6033 19.5096C37.3212 18.0664 34.617 17.2307 31.7177 17.2307C23.5601 17.2307 16.9478 23.8437 16.9478 32.0007C16.9478 40.1576 23.5601 46.7706 31.7177 46.7706C39.8746 46.7706 46.4876 40.1576 46.4876 32.0007C46.4876 28.1933 45.0471 24.7227 42.6816 22.1039M22.6993 28.0201L31.7177 36.1409L46.4876 17.2301M31.7177 62L14.7045 52.4838C11.7994 50.859 10 47.7911 10 44.4626V9.17787C23.2518 9.17787 31.7177 2 31.7177 2C31.7177 2 40.1836 9.17787 53.4353 9.17787V44.4626C53.4353 47.7911 51.636 50.859 48.7309 52.4838L31.7177 62Z" stroke="#251664" stroke-width="2" stroke-miterlimit="10" stroke-linecap="round" stroke-linejoin="round"/>
</symbol><symbol id="search" viewBox="0 0 24 24">
<path d="M22.2069 20.7929L16.3141 14.8999C17.5655 13.2888 18.1557 11.2614 17.9647 9.23038C17.7737 7.19937 16.8158 5.31752 15.286 3.96799C13.7562 2.61845 11.7696 1.90269 9.73062 1.96645C7.69165 2.0302 5.75363 2.86868 4.31115 4.31115C2.86868 5.75363 2.0302 7.69165 1.96645 9.73062C1.90269 11.7696 2.61845 13.7562 3.96799 15.286C5.31752 16.8158 7.19937 17.7737 9.23038 17.9647C11.2614 18.1557 13.2888 17.5655 14.8999 16.3141L20.7929 22.2069L22.2069 20.7929ZM9.99994 15.9999C8.81325 15.9999 7.65322 15.648 6.66652 14.9888C5.67983 14.3295 4.91079 13.3924 4.45667 12.296C4.00254 11.1997 3.88372 9.99329 4.11523 8.8294C4.34674 7.66551 4.91819 6.59642 5.7573 5.7573C6.59642 4.91819 7.66551 4.34674 8.8294 4.11523C9.99329 3.88372 11.1997 4.00254 12.296 4.45667C13.3924 4.91079 14.3295 5.67983 14.9888 6.66652C15.648 7.65322 15.9999 8.81325 15.9999 9.99994C15.9981 11.5907 15.3654 13.1158 14.2406 14.2406C13.1158 15.3654 11.5907 15.9981 9.99994 15.9999Z" fill="currentColor"/>
</symbol><symbol id="star-fill-gray" viewBox="-4.05 -4.83 30.11 28.64">
<mask id="path-1-inside-1_30_13275" fill="white">
<path d="M11 0L14.0776 6.76399L21.4616 7.60081L15.9797 12.618L17.4656 19.8992L11 16.236L4.53431 19.8992L6.02022 12.618L0.53833 7.60081L7.92231 6.76399L11 0Z"/>
</mask>
<path d="M11 0L14.0776 6.76399L21.4616 7.60081L15.9797 12.618L17.4656 19.8992L11 16.236L4.53431 19.8992L6.02022 12.618L0.53833 7.60081L7.92231 6.76399L11 0Z" fill="#DADADA"/>
<path d="M11 0L12.8204 -0.828298L11 -4.82918L9.17953 -0.828298L11 0ZM14.0776 6.76399L12.2572 7.59229L12.7265 8.62367L13.8524 8.75127L14.0776 6.76399ZM21.4616 7.60081L22.8119 9.07617L26.0544 6.10851L21.6868 5.61353L21.4616 7.60081ZM15.9797 12.618L14.6294 11.1427L13.7935 11.9077L14.0201 13.0179L15.9797 12.618ZM17.4656 19.8992L16.4797 21.6393L20.3041 23.8061L19.4252 19.4993L17.4656 19.8992ZM11 16.236L11.9858 14.4959L11 13.9373L10.0141 14.4959L11 16.236ZM4.53431 19.8992L2.5747 19.4993L1.69579 23.8061L5.5202 21.6393L4.53431 19.8992ZM6.02022 12.618L7.97983 13.0179L8.2064 11.9077L7.37052 11.1427L6.02022 12.618ZM0.53833 7.60081L0.313112 5.61353L-4.05449 6.10851L-0.811969 9.07617L0.53833 7.60081ZM7.92231 6.76399L8.14753 8.75127L9.27344 8.62367L9.74273 7.59229L7.92231 6.76399ZM9.17953 0.828298L12.2572 7.59229L15.898 5.93569L12.8204 -0.828298L9.17953 0.828298ZM13.8524 8.75127L21.2364 9.58809L21.6868 5.61353L14.3028 4.77671L13.8524 8.75127ZM20.1113 6.12545L14.6294 11.1427L17.33 14.0934L22.8119 9.07617L20.1113 6.12545ZM14.0201 13.0179L15.506 20.2991L19.4252 19.4993L17.9393 12.2181L14.0201 13.0179ZM18.4515 18.1591L11.9858 14.4959L10.0141 17.9761L16.4797 21.6393L18.4515 18.1591ZM10.0141 14.4959L3.54843 18.1591L5.5202 21.6393L11.9858 17.9761L10.0141 14.4959ZM6.49392 20.2991L7.97983 13.0179L4.06061 12.2181L2.5747 19.4993L6.49392 20.2991ZM7.37052 11.1427L1.88863 6.12545L-0.811969 9.07617L4.66992 14.0934L7.37052 11.1427ZM0.763548 9.58809L8.14753 8.75127L7.69709 4.77671L0.313112 5.61353L0.763548 9.58809ZM9.74273 7.59229L12.8204 0.828298L9.17953 -0.828298L6.10189 5.93569L9.74273 7.59229Z" fill="#DADADA" mask="url(#path-1-inside-1_30_13275)"/>
</symbol><symbol id="star-fill-orange" viewBox="-4.05 -4.83 30.11 28.64">
<mask id="path-1-inside-1_30_13275" fill="white">
<path d="M11 0L14.0776 6.76399L21.4616 7.60081L15.9797 12.618L17.4656 19.8992L11 16.236L4.53431 19.8992L6.02022 12.618L0.53833 7.60081L7.92231 6.76399L11 0Z"/>
</mask>
<path d="M11 0L14.0776 6.76399L21.4616 7.60081L15.9797 12.618L17.4656 19.8992L11 16.236L4.53431 19.8992L6.02022 12.618L0.53833 7.60081L7.92231 6.76399L11 0Z" fill="#F2994A"/>
<path d="M11 0L12.8204 -0.828298L11 -4.82918L9.17953 -0.828298L11 0ZM14.0776 6.76399L12.2572 7.59229L12.7265 8.62367L13.8524 8.75127L14.0776 6.76399ZM21.4616 7.60081L22.8119 9.07617L26.0544 6.10851L21.6868 5.61353L21.4616 7.60081ZM15.9797 12.618L14.6294 11.1427L13.7935 11.9077L14.0201 13.0179L15.9797 12.618ZM17.4656 19.8992L16.4797 21.6393L20.3041 23.8061L19.4252 19.4993L17.4656 19.8992ZM11 16.236L11.9858 14.4959L11 13.9373L10.0141 14.4959L11 16.236ZM4.53431 19.8992L2.5747 19.4993L1.69579 23.8061L5.5202 21.6393L4.53431 19.8992ZM6.02022 12.618L7.97983 13.0179L8.2064 11.9077L7.37052 11.1427L6.02022 12.618ZM0.53833 7.60081L0.313112 5.61353L-4.05449 6.10851L-0.811969 9.07617L0.53833 7.60081ZM7.92231 6.76399L8.14753 8.75127L9.27344 8.62367L9.74273 7.59229L7.92231 6.76399ZM9.17953 0.828298L12.2572 7.59229L15.898 5.93569L12.8204 -0.828298L9.17953 0.828298ZM13.8524 8.75127L21.2364 9.58809L21.6868 5.61353L14.3028 4.77671L13.8524 8.75127ZM20.1113 6.12545L14.6294 11.1427L17.33 14.0934L22.8119 9.07617L20.1113 6.12545ZM14.0201 13.0179L15.506 20.2991L19.4252 19.4993L17.9393 12.2181L14.0201 13.0179ZM18.4515 18.1591L11.9858 14.4959L10.0141 17.9761L16.4797 21.6393L18.4515 18.1591ZM10.0141 14.4959L3.54843 18.1591L5.5202 21.6393L11.9858 17.9761L10.0141 14.4959ZM6.49392 20.2991L7.97983 13.0179L4.06061 12.2181L2.5747 19.4993L6.49392 20.2991ZM7.37052 11.1427L1.88863 6.12545L-0.811969 9.07617L4.66992 14.0934L7.37052 11.1427ZM0.763548 9.58809L8.14753 8.75127L7.69709 4.77671L0.313112 5.61353L0.763548 9.58809ZM9.74273 7.59229L12.8204 0.828298L9.17953 -0.828298L6.10189 5.93569L9.74273 7.59229Z" fill="#F2994A" mask="url(#path-1-inside-1_30_13275)"/>
</symbol><symbol id="star-fill" viewBox="-4.05 -4.83 30.11 28.64">
<mask id="path-1-inside-1_30_13275" fill="white">
<path d="M11 0L14.0776 6.76399L21.4616 7.60081L15.9797 12.618L17.4656 19.8992L11 16.236L4.53431 19.8992L6.02022 12.618L0.53833 7.60081L7.92231 6.76399L11 0Z"/>
</mask>
<path d="M11 0L14.0776 6.76399L21.4616 7.60081L15.9797 12.618L17.4656 19.8992L11 16.236L4.53431 19.8992L6.02022 12.618L0.53833 7.60081L7.92231 6.76399L11 0Z" fill="#251664"/>
<path d="M11 0L12.8204 -0.828298L11 -4.82918L9.17953 -0.828298L11 0ZM14.0776 6.76399L12.2572 7.59229L12.7265 8.62367L13.8524 8.75127L14.0776 6.76399ZM21.4616 7.60081L22.8119 9.07617L26.0544 6.10851L21.6868 5.61353L21.4616 7.60081ZM15.9797 12.618L14.6294 11.1427L13.7935 11.9077L14.0201 13.0179L15.9797 12.618ZM17.4656 19.8992L16.4797 21.6393L20.3041 23.8061L19.4252 19.4993L17.4656 19.8992ZM11 16.236L11.9858 14.4959L11 13.9373L10.0141 14.4959L11 16.236ZM4.53431 19.8992L2.5747 19.4993L1.69579 23.8061L5.5202 21.6393L4.53431 19.8992ZM6.02022 12.618L7.97983 13.0179L8.2064 11.9077L7.37052 11.1427L6.02022 12.618ZM0.53833 7.60081L0.313112 5.61353L-4.05449 6.10851L-0.811969 9.07617L0.53833 7.60081ZM7.92231 6.76399L8.14753 8.75127L9.27344 8.62367L9.74273 7.59229L7.92231 6.76399ZM9.17953 0.828298L12.2572 7.59229L15.898 5.93569L12.8204 -0.828298L9.17953 0.828298ZM13.8524 8.75127L21.2364 9.58809L21.6868 5.61353L14.3028 4.77671L13.8524 8.75127ZM20.1113 6.12545L14.6294 11.1427L17.33 14.0934L22.8119 9.07617L20.1113 6.12545ZM14.0201 13.0179L15.506 20.2991L19.4252 19.4993L17.9393 12.2181L14.0201 13.0179ZM18.4515 18.1591L11.9858 14.4959L10.0141 17.9761L16.4797 21.6393L18.4515 18.1591ZM10.0141 14.4959L3.54843 18.1591L5.5202 21.6393L11.9858 17.9761L10.0141 14.4959ZM6.49392 20.2991L7.97983 13.0179L4.06061 12.2181L2.5747 19.4993L6.49392 20.2991ZM7.37052 11.1427L1.88863 6.12545L-0.811969 9.07617L4.66992 14.0934L7.37052 11.1427ZM0.763548 9.58809L8.14753 8.75127L7.69709 4.77671L0.313112 5.61353L0.763548 9.58809ZM9.74273 7.59229L12.8204 0.828298L9.17953 -0.828298L6.10189 5.93569L9.74273 7.59229Z" fill="#251664" mask="url(#path-1-inside-1_30_13275)"/>
</symbol><symbol id="star" viewBox="1.83 1.41 18.33 17.53">
<path d="M11 2.41459L13.1674 7.17814L13.4021 7.69383L13.965 7.75763L19.1652 8.34696L15.3046 11.8803L14.8866 12.2628L14.9999 12.818L16.0464 17.9457L11.4929 15.3659L11 15.0867L10.5071 15.3659L5.95362 17.9457L7.00007 12.818L7.11336 12.2628L6.69542 11.8803L2.83479 8.34696L8.03497 7.75763L8.59792 7.69383L8.83257 7.17814L11 2.41459Z" stroke="#251664" stroke-width="2"/>
</symbol><symbol id="start" viewBox="0 0 20 20">
<path d="M9.04894 2.92705C9.3483 2.00574 10.6517 2.00574 10.9511 2.92705L12.0206 6.21885C12.1545 6.63087 12.5385 6.90983 12.9717 6.90983H16.4329C17.4016 6.90983 17.8044 8.14945 17.0207 8.71885L14.2205 10.7533C13.87 11.0079 13.7234 11.4593 13.8572 11.8713L14.9268 15.1631C15.2261 16.0844 14.1717 16.8506 13.388 16.2812L10.5878 14.2467C10.2373 13.9921 9.7627 13.9921 9.41221 14.2467L6.61204 16.2812C5.82833 16.8506 4.77385 16.0844 5.0732 15.1631L6.14277 11.8713C6.27665 11.4593 6.12999 11.0079 5.7795 10.7533L2.97933 8.71885C2.19562 8.14945 2.59839 6.90983 3.56712 6.90983H7.02832C7.46154 6.90983 7.8455 6.63087 7.97937 6.21885L9.04894 2.92705Z" fill="#251664"/>
</symbol><symbol id="user" viewBox="4 2 16 19">
<path d="M12 10C12.7911 10 13.5645 9.76541 14.2223 9.32588C14.8801 8.88635 15.3928 8.26164 15.6955 7.53074C15.9983 6.79983 16.0775 5.99556 15.9231 5.21964C15.7688 4.44372 15.3878 3.73098 14.8284 3.17157C14.269 2.61216 13.5563 2.2312 12.7804 2.07686C12.0044 1.92252 11.2002 2.00173 10.4693 2.30448C9.73836 2.60723 9.11365 3.11992 8.67412 3.77772C8.2346 4.43552 8 5.20888 8 6C8.00119 7.0605 8.423 8.07723 9.17289 8.82711C9.92278 9.577 10.9395 9.99881 12 10ZM12 4C12.3956 4 12.7822 4.1173 13.1111 4.33706C13.44 4.55683 13.6964 4.86918 13.8478 5.23463C13.9991 5.60009 14.0387 6.00222 13.9616 6.39018C13.8844 6.77814 13.6939 7.13451 13.4142 7.41422C13.1345 7.69392 12.7781 7.8844 12.3902 7.96157C12.0022 8.03874 11.6001 7.99914 11.2346 7.84776C10.8692 7.69639 10.5568 7.44004 10.3371 7.11114C10.1173 6.78224 10 6.39556 10 6C10.0006 5.46976 10.2115 4.9614 10.5865 4.58646C10.9614 4.21152 11.4698 4.00061 12 4ZM19.707 15.2041C17.6615 13.163 14.8897 12.0166 12 12.0166C9.11027 12.0166 6.33855 13.163 4.293 15.2041L4 15.4971V21H20V15.4971L19.707 15.2041ZM18 19H6V16.3383C7.64125 14.8445 9.78072 14.0166 12 14.0166C14.2193 14.0166 16.3588 14.8445 18 16.3383V19Z" fill="currentColor"/>
</symbol><symbol id="viber-sec" viewBox="0 0 24 24">
<path d="M21.2006 2.34715C20.6023 1.81179 18.2089 0.0482416 12.8238 0.0167496C12.8238 0.0167496 6.49386 -0.361158 3.40765 2.47312C1.67559 4.20518 1.07724 6.69305 1.01426 9.81076C0.951273 12.9285 0.856806 18.7545 6.49387 20.3606V22.7855C6.49387 22.7855 6.46238 23.7617 7.09222 23.9507C7.87952 24.2026 8.3204 23.4468 9.07621 22.6595C9.4856 22.2186 10.0525 21.5888 10.4619 21.0849C14.3039 21.3998 17.2641 20.6755 17.6105 20.5495C18.3978 20.2976 22.7752 19.7307 23.4995 13.9047C24.2554 7.85826 23.1846 4.04772 21.2006 2.34715ZM21.862 13.4323C21.2636 18.3136 17.705 18.6285 17.0437 18.8175C16.7603 18.9119 14.1779 19.5418 10.9027 19.3528C10.9027 19.3528 8.47786 22.2816 7.69056 23.0689C7.56459 23.1948 7.43862 23.2263 7.34415 23.2263C7.21818 23.1948 7.18669 23.0374 7.18669 22.8169C7.18669 22.502 7.21818 18.786 7.21818 18.786C2.46289 17.4633 2.74632 12.4876 2.77781 9.87374C2.84079 7.2599 3.31318 5.14994 4.76181 3.70131C7.37565 1.33941 12.7608 1.68582 12.7608 1.68582C17.2956 1.71731 19.4686 3.07147 19.9724 3.54385C21.61 4.99248 22.4603 8.42511 21.862 13.4323Z" fill="currentColor"/>
<path fill-rule="evenodd" clip-rule="evenodd" d="M12.8987 7.77889C12.9077 7.61156 13.0507 7.48324 13.218 7.49229C13.8515 7.52653 14.3749 7.71802 14.7469 8.10449C15.1172 8.48918 15.2974 9.02569 15.3313 9.66891C15.3401 9.83626 15.2115 9.97906 15.0442 9.98787C14.8769 9.99668 14.7341 9.86816 14.7252 9.70081C14.6961 9.14729 14.5457 8.7705 14.3097 8.52532C14.0754 8.28193 13.7171 8.127 13.1853 8.09825C13.0179 8.08921 12.8896 7.94623 12.8987 7.77889Z" fill="currentColor"/>
<path fill-rule="evenodd" clip-rule="evenodd" d="M12.4898 6.13381C12.503 5.96675 12.6491 5.84201 12.8161 5.8552C14.0722 5.95436 15.095 6.38839 15.8503 7.21238L15.8507 7.21282C16.5691 7.99965 16.9398 9.02265 16.9062 10.1975C16.9014 10.365 16.7618 10.4969 16.5943 10.4921C16.4268 10.4873 16.2948 10.3477 16.2996 10.1801C16.329 9.15056 16.007 8.28405 15.4028 7.62221C14.7724 6.93467 13.9057 6.54996 12.7684 6.46017C12.6013 6.44698 12.4766 6.30086 12.4898 6.13381Z" fill="currentColor"/>
<path fill-rule="evenodd" clip-rule="evenodd" d="M11.8905 4.61458C11.8905 4.447 12.0263 4.31115 12.1939 4.31115C13.9691 4.31115 15.4635 4.90584 16.657 6.06616C17.8592 7.23494 18.481 8.83022 18.481 10.8187C18.481 10.9863 18.3452 11.1222 18.1776 11.1222C18.01 11.1222 17.8742 10.9863 17.8742 10.8187C17.8742 8.96508 17.2993 7.53702 16.234 6.50127C15.1599 5.45706 13.8199 4.918 12.1939 4.918C12.0263 4.918 11.8905 4.78216 11.8905 4.61458Z" fill="currentColor"/>
<path d="M13.2646 13.7473C13.2646 13.7473 13.7055 13.7787 13.926 13.4953L14.3669 12.9285C14.5873 12.645 15.0912 12.4561 15.6265 12.7395C15.91 12.897 16.4138 13.2119 16.7288 13.4638C17.0752 13.7158 17.768 14.2826 17.768 14.2826C18.1144 14.566 18.1774 14.9754 17.9569 15.4163C17.7365 15.8257 17.4216 16.2036 17.0122 16.55C16.6973 16.8335 16.3823 16.9594 16.0674 17.0224H15.9415C15.8155 17.0224 15.658 16.9909 15.5321 16.9594C15.0597 16.8335 14.2724 16.4871 12.9182 15.7627C12.0679 15.2904 11.3436 14.7865 10.7453 14.3141C10.4304 14.0622 10.0839 13.7788 9.76902 13.4323L9.64306 13.3064C9.29665 12.96 9.01321 12.645 8.76128 12.3301C8.2889 11.7318 7.78502 11.0075 7.31264 10.1572C6.58833 8.8345 6.24192 8.04721 6.11595 7.54334C6.08446 7.41737 6.05296 7.2914 6.05296 7.13394V7.00797C6.08446 6.69305 6.24192 6.37813 6.52534 6.06321C6.87176 5.68531 7.24966 5.37039 7.65906 5.11845C8.09994 4.89801 8.50934 4.96099 8.79277 5.3074C8.79277 5.3074 9.35963 6.00023 9.61156 6.34665C9.83201 6.66157 10.1469 7.16544 10.3359 7.44886C10.6193 7.95274 10.4304 8.4881 10.1784 8.70854L9.61156 9.14943C9.32814 9.36987 9.35962 9.81076 9.35962 9.81076C9.35962 9.81076 10.1469 12.9285 13.2646 13.7473Z" fill="currentColor"/>
</symbol><symbol id="viber" viewBox="1 0 22.74 24">
<path d="M21.2006 2.34715C20.6023 1.81179 18.2089 0.0482416 12.8238 0.0167496C12.8238 0.0167496 6.49386 -0.361158 3.40765 2.47312C1.67559 4.20518 1.07724 6.69305 1.01426 9.81076C0.951273 12.9285 0.856806 18.7545 6.49387 20.3606V22.7855C6.49387 22.7855 6.46238 23.7617 7.09222 23.9507C7.87952 24.2026 8.3204 23.4468 9.07621 22.6595C9.4856 22.2186 10.0525 21.5888 10.4619 21.0849C14.3039 21.3998 17.2641 20.6755 17.6105 20.5495C18.3978 20.2976 22.7752 19.7307 23.4995 13.9047C24.2554 7.85826 23.1846 4.04772 21.2006 2.34715ZM21.862 13.4323C21.2636 18.3136 17.705 18.6285 17.0437 18.8175C16.7603 18.9119 14.1779 19.5418 10.9027 19.3528C10.9027 19.3528 8.47786 22.2816 7.69056 23.0689C7.56459 23.1948 7.43862 23.2263 7.34415 23.2263C7.21818 23.1948 7.18669 23.0374 7.18669 22.8169C7.18669 22.502 7.21818 18.786 7.21818 18.786C2.46289 17.4633 2.74632 12.4876 2.77781 9.87374C2.84079 7.2599 3.31318 5.14994 4.76181 3.70131C7.37565 1.33941 12.7608 1.68582 12.7608 1.68582C17.2956 1.71731 19.4686 3.07147 19.9724 3.54385C21.61 4.99248 22.4603 8.42511 21.862 13.4323Z" fill="currentColor"/>
<path fill-rule="evenodd" clip-rule="evenodd" d="M12.8987 7.77889C12.9077 7.61156 13.0507 7.48324 13.218 7.49229C13.8515 7.52653 14.3749 7.71802 14.7469 8.10449C15.1172 8.48918 15.2974 9.02569 15.3313 9.66891C15.3401 9.83626 15.2115 9.97906 15.0442 9.98787C14.8769 9.99668 14.7341 9.86816 14.7252 9.70081C14.6961 9.14729 14.5457 8.7705 14.3097 8.52532C14.0754 8.28193 13.7171 8.127 13.1853 8.09825C13.0179 8.08921 12.8896 7.94623 12.8987 7.77889Z" fill="currentColor"/>
<path fill-rule="evenodd" clip-rule="evenodd" d="M12.4898 6.13381C12.503 5.96675 12.6491 5.84201 12.8161 5.8552C14.0722 5.95436 15.095 6.38839 15.8503 7.21238L15.8507 7.21282C16.5691 7.99965 16.9398 9.02265 16.9062 10.1975C16.9014 10.365 16.7618 10.4969 16.5943 10.4921C16.4268 10.4873 16.2948 10.3477 16.2996 10.1801C16.329 9.15056 16.007 8.28405 15.4028 7.62221C14.7724 6.93467 13.9057 6.54996 12.7684 6.46017C12.6013 6.44698 12.4766 6.30086 12.4898 6.13381Z" fill="currentColor"/>
<path fill-rule="evenodd" clip-rule="evenodd" d="M11.8905 4.61458C11.8905 4.447 12.0263 4.31115 12.1939 4.31115C13.9691 4.31115 15.4635 4.90584 16.657 6.06616C17.8592 7.23494 18.481 8.83022 18.481 10.8187C18.481 10.9863 18.3452 11.1222 18.1776 11.1222C18.01 11.1222 17.8742 10.9863 17.8742 10.8187C17.8742 8.96508 17.2993 7.53702 16.234 6.50127C15.1599 5.45706 13.8199 4.918 12.1939 4.918C12.0263 4.918 11.8905 4.78216 11.8905 4.61458Z" fill="currentColor"/>
<path d="M13.2646 13.7473C13.2646 13.7473 13.7055 13.7787 13.926 13.4953L14.3669 12.9285C14.5873 12.645 15.0912 12.4561 15.6265 12.7395C15.91 12.897 16.4138 13.2119 16.7288 13.4638C17.0752 13.7158 17.768 14.2826 17.768 14.2826C18.1144 14.566 18.1774 14.9754 17.9569 15.4163C17.7365 15.8257 17.4216 16.2036 17.0122 16.55C16.6973 16.8335 16.3823 16.9594 16.0674 17.0224H15.9415C15.8155 17.0224 15.658 16.9909 15.5321 16.9594C15.0597 16.8335 14.2724 16.4871 12.9182 15.7627C12.0679 15.2904 11.3436 14.7865 10.7453 14.3141C10.4304 14.0622 10.0839 13.7788 9.76902 13.4323L9.64306 13.3064C9.29665 12.96 9.01321 12.645 8.76128 12.3301C8.2889 11.7318 7.78502 11.0075 7.31264 10.1572C6.58833 8.8345 6.24192 8.04721 6.11595 7.54334C6.08446 7.41737 6.05296 7.2914 6.05296 7.13394V7.00797C6.08446 6.69305 6.24192 6.37813 6.52534 6.06321C6.87176 5.68531 7.24966 5.37039 7.65906 5.11845C8.09994 4.89801 8.50934 4.96099 8.79277 5.3074C8.79277 5.3074 9.35963 6.00023 9.61156 6.34665C9.83201 6.66157 10.1469 7.16544 10.3359 7.44886C10.6193 7.95274 10.4304 8.4881 10.1784 8.70854L9.61156 9.14943C9.32814 9.36987 9.35962 9.81076 9.35962 9.81076C9.35962 9.81076 10.1469 12.9285 13.2646 13.7473Z" fill="currentColor"/>
</symbol><symbol id="vk" viewBox="0 5 23.69 14">
<path fill-rule="evenodd" clip-rule="evenodd" d="M19.6818 11.8643C19.6818 11.8643 22.8028 7.41985 23.114 5.95954C23.2174 5.43831 22.9891 5.14646 22.4517 5.14646H19.7432C19.1229 5.14646 18.8957 5.41677 18.7094 5.81415C18.7094 5.81415 17.2448 8.962 15.4646 10.9468C14.8917 11.5875 14.6009 11.7814 14.2854 11.7814C14.0312 11.7814 13.9138 11.566 13.9138 10.9877V5.91754C13.9138 5.20892 13.8309 5 13.2515 5H8.91154C8.57985 5 8.37308 5.19385 8.37308 5.45877C8.37308 6.12646 9.38539 6.27723 9.38539 8.08754V11.8223C9.38539 12.574 9.34446 12.8658 8.99339 12.8658C8.06292 12.8658 5.85092 9.63185 4.61031 5.95954C4.36262 5.20892 4.09338 5 3.39015 5H0.682769C0.289692 5 0 5.27138 0 5.66769C0 6.39785 0.847539 9.77831 4.17631 14.3046C6.40877 17.3523 9.34554 19 11.9905 19C13.6037 19 13.9968 18.7286 13.9968 18.0405V15.7035C13.9968 15.1188 14.2229 14.8689 14.5546 14.8689C14.9262 14.8689 15.5831 14.9895 17.1177 16.5166C18.9377 18.2709 19.0615 19 20.0534 19H23.0925C23.4026 19 23.6923 18.8535 23.6923 18.3323C23.6923 17.6431 22.8028 16.4132 21.4383 14.9518C20.8805 14.2012 19.9715 13.3871 19.6818 13.0123C19.2683 12.574 19.3922 12.3231 19.6818 11.8643Z" fill="currentColor"/>
</symbol><symbol id="whatsapp" viewBox="1 1 21.9 22">
<path fill-rule="evenodd" clip-rule="evenodd" d="M2.54719 17.351L1 23L6.78086 21.4841C8.3737 22.3526 10.1669 22.8104 11.9918 22.8112H11.9966C18.0067 22.8112 22.8991 17.9202 22.9017 11.9097C22.9028 8.99678 21.7698 6.25782 19.7107 4.19723C17.6516 2.13664 14.9137 1.00148 11.9967 1C5.9857 1 1.09411 5.89011 1.0916 11.901C1.08929 13.814 1.59135 15.6939 2.54719 17.351ZM2.93271 11.9017C2.93449 6.90595 7.00039 2.84153 12 2.84153C13.1908 2.83873 14.3703 3.07215 15.4702 3.52828C16.5701 3.9844 17.5686 4.65417 18.408 5.49882C19.252 6.33884 19.921 7.33795 20.3763 8.43829C20.8315 9.53862 21.064 10.7183 21.0602 11.9091C21.0583 16.9052 16.9924 20.9701 11.9966 20.9701H11.9932C10.3664 20.9692 8.77122 20.5324 7.37996 19.7067L7.0487 19.5105L3.61819 20.41L4.53399 17.0665L4.31834 16.7238C3.41064 15.2794 2.93025 13.6076 2.93271 11.9017Z" fill="currentColor"/>
<path fill-rule="evenodd" clip-rule="evenodd" d="M9.27105 7.34361C9.06682 6.88993 8.85191 6.88074 8.6579 6.87289L8.1356 6.86652C7.95389 6.86652 7.65866 6.93469 7.40907 7.2074C7.15948 7.48011 6.45532 8.13921 6.45532 9.47979C6.45532 10.8204 7.43174 12.1157 7.5678 12.2977C7.70386 12.4797 9.45276 15.3185 12.2224 16.4106C14.524 17.3183 14.9923 17.1378 15.4921 17.0924C15.9919 17.0471 17.1042 16.4333 17.3311 15.797C17.558 15.1608 17.5582 14.6156 17.4902 14.5017C17.4221 14.3877 17.2404 14.32 16.9677 14.1836C16.695 14.0472 15.3556 13.3881 15.1059 13.2971C14.8561 13.2061 14.6746 13.1609 14.4927 13.4336C14.3109 13.7064 13.7893 14.3198 13.6303 14.5017C13.4712 14.6835 13.3125 14.7063 13.0398 14.5701C12.7671 14.4339 11.8897 14.1461 10.8486 13.2178C10.0386 12.4956 9.49189 11.6037 9.33271 11.3311C9.17353 11.0585 9.31581 10.9109 9.45247 10.7752C9.57474 10.653 9.72488 10.457 9.86138 10.2979C9.99789 10.1389 10.0428 10.0252 10.1335 9.84365C10.2242 9.66209 10.179 9.50262 10.1108 9.36641C10.0426 9.2302 9.51323 7.88266 9.27105 7.34376" fill="currentColor"/>
</symbol><symbol id="yandex" viewBox="0 0 12 24">
<path d="M9.42628 13.056H8.02234C5.81629 13.056 3.67701 11.5202 3.67701 7.67982C3.67701 3.68012 5.68276 2.04801 7.72143 2.04801H9.42628V13.056ZM11.6323 -9.53674e-07H7.82204C4.07761 -9.53674e-07 0.902986 2.72047 0.902986 8.00029C0.902986 11.1682 2.44045 13.5043 5.18155 14.6557L0.0670292 23.4878C-0.100345 23.7758 0.067029 24 0.334096 24H2.70752C2.90782 24 3.04227 23.9361 3.10904 23.7758L7.75528 15.104H9.42628V23.7758C9.42628 23.8722 9.52688 24 9.66042 24H11.7329C11.9332 24 12 23.9037 12 23.7443V0.319592C12 0.0963154 11.8665 -9.53674e-07 11.6323 -9.53674e-07Z" fill="currentColor"/>
</symbol><symbol id="youtube" viewBox="0 0 17.71 12.8">
<path d="M17.7131 4.91313C17.7131 4.52525 17.6485 4.07273 17.6485 3.55556C17.5839 3.03838 17.5192 2.52121 17.4545 2.06869C17.3253 1.55151 17.1313 1.16364 16.7434 0.840406C16.4202 0.517174 15.9677 0.323228 15.5152 0.258582C14.0283 0.0646425 11.8303 0 8.85657 0C5.88284 0 3.6202 0.0646425 2.19798 0.258582C1.74545 0.323228 1.29293 0.517174 0.969697 0.840406C0.646465 1.16364 0.387875 1.55151 0.258582 2.06869C0.129289 2.52121 0.0646504 2.97374 0.0646504 3.55556C3.94474e-06 4.07273 0 4.52525 0 4.91313C0 5.301 0 5.75353 0 6.4C0 7.04646 0 7.56363 0 7.88687C0 8.27475 0.0646504 8.72728 0.0646504 9.24445C0.129297 9.76162 0.193935 10.2788 0.258582 10.7313C0.387875 11.2485 0.581818 11.6364 0.969697 11.9596C1.29293 12.2828 1.74545 12.4768 2.19798 12.5414C3.68484 12.7354 5.88284 12.8 8.85657 12.8C11.8303 12.8 14.0929 12.7354 15.5152 12.5414C15.9677 12.4768 16.4202 12.2828 16.7434 11.9596C17.0667 11.6364 17.3253 11.2485 17.4545 10.7313C17.5838 10.2788 17.6485 9.82627 17.6485 9.24445C17.7131 8.72728 17.7131 8.27475 17.7131 7.88687C17.7131 7.49899 17.7131 7.04646 17.7131 6.4C17.7131 5.75353 17.7131 5.23636 17.7131 4.91313ZM12.2828 6.91717L7.17576 10.0848C7.11112 10.1495 6.98182 10.2141 6.85253 10.2141C6.72324 10.2141 6.65859 10.2141 6.5293 10.1495C6.33536 10.0202 6.20607 9.82627 6.20607 9.56768V3.16767C6.20607 2.90909 6.33536 2.71515 6.5293 2.58586C6.72324 2.45657 6.98182 2.45657 7.17576 2.58586L12.2828 5.75353C12.4768 5.88282 12.6061 6.07677 12.6061 6.27071C12.6061 6.46464 12.4768 6.78788 12.2828 6.91717Z" fill="currentColor"/>
</symbol><symbol id="zoom" viewBox="0 0 24 24">
<path d="M22.2069 20.7929L16.3141 14.8999C17.5655 13.2888 18.1557 11.2614 17.9647 9.23038C17.7737 7.19937 16.8158 5.31752 15.286 3.96799C13.7562 2.61845 11.7696 1.90269 9.73062 1.96645C7.69165 2.0302 5.75363 2.86868 4.31115 4.31115C2.86868 5.75363 2.0302 7.69165 1.96645 9.73062C1.90269 11.7696 2.61845 13.7562 3.96799 15.286C5.31752 16.8158 7.19937 17.7737 9.23038 17.9647C11.2614 18.1557 13.2888 17.5655 14.8999 16.3141L20.7929 22.2069L22.2069 20.7929ZM9.99994 15.9999C8.81325 15.9999 7.65322 15.648 6.66652 14.9888C5.67983 14.3295 4.91079 13.3924 4.45667 12.296C4.00254 11.1997 3.88372 9.99329 4.11523 8.8294C4.34674 7.66551 4.91819 6.59642 5.7573 5.7573C6.59642 4.91819 7.66551 4.34674 8.8294 4.11523C9.99329 3.88372 11.1997 4.00254 12.296 4.45667C13.3924 4.91079 14.3295 5.67983 14.9888 6.66652C15.648 7.65322 15.9999 8.81325 15.9999 9.99994C15.9981 11.5907 15.3654 13.1158 14.2406 14.2406C13.1158 15.3654 11.5907 15.9981 9.99994 15.9999Z" fill="currentColor"/>
<rect x="6" y="9.5" width="8" height="1" rx="0.5" fill="currentColor"/>
<rect x="9.5" y="6" width="1" height="8" rx="0.5" fill="currentColor"/>
</symbol></svg>