<svg width="64" height="50" viewBox="0 0 64 50" fill="none" xmlns="http://www.w3.org/2000/svg">
<path d="M30.9039 45.8817C41.8562 45.8817 50.7348 36.7486 50.7348 25.4823C50.7348 14.216 41.8562 5.08295 30.9039 5.08295C19.9517 5.08295 11.0731 14.216 11.0731 25.4823C11.0731 36.7486 19.9517 45.8817 30.9039 45.8817Z" fill="#C41735"/>
<path d="M48.0489 49.5992L34.0471 16.4213H39.9948L47.5639 34.355H62.8663L69.3023 49.5992H48.0489Z" fill="#251664"/>
<path d="M38.786 34.6783H7.49064V31.9462H37.6331L31.0813 16.4213H7.49064V13.6893H38.8418L33.0644 0.000427246H0.000488281V49.5992H45.0825L38.786 34.6783Z" fill="#251664"/>
<mask id="mask0_2_211" style="mask-type:alpha" maskUnits="userSpaceOnUse" x="11" y="5" width="40" height="41">
<path d="M30.9039 45.8817C41.8562 45.8817 50.7348 36.7486 50.7348 25.4823C50.7348 14.216 41.8562 5.08295 30.9039 5.08295C19.9517 5.08295 11.0731 14.216 11.0731 25.4823C11.0731 36.7486 19.9517 45.8817 30.9039 45.8817Z" fill="#DD4661"/>
</mask>
<g mask="url(#mask0_2_211)">
<path fill-rule="evenodd" clip-rule="evenodd" d="M38.786 34.6783H7.49064V31.9462H37.6331L31.0813 16.4213H7.49064V13.6893H38.8418L33.0644 0.000427246H0.000488281V49.5992H45.0825L38.786 34.6783Z" fill="white"/>
<path d="M48.0489 49.5992L34.0471 16.4213H39.9948L47.5639 34.355H62.8663L69.3023 49.5992H48.0489Z" fill="white"/>
</g>
</svg>
