<svg width="158" height="50" viewBox="0 0 158 50" fill="none" xmlns="http://www.w3.org/2000/svg">
<path d="M30.9039 45.8817C41.8562 45.8817 50.7348 36.7486 50.7348 25.4823C50.7348 14.216 41.8562 5.08295 30.9039 5.08295C19.9517 5.08295 11.0731 14.216 11.0731 25.4823C11.0731 36.7486 19.9517 45.8817 30.9039 45.8817Z" fill="#C41735"/>
<path fill-rule="evenodd" clip-rule="evenodd" d="M104.86 34.3602L97.9308 49.5992H90.4L85.279 38.4439L80.1581 49.5992H72.6267L65.6977 34.3602H71.7227L76.543 46.2463L81.664 34.3602H88.8947L94.0157 46.3992L98.836 34.3602H104.86ZM140.099 37.4073V34.3608H133.971V30.4131H129.07V34.3608H125.396V37.4073H129.07V44.2678C129.07 47.8201 131.931 49.5992 137.652 49.5992H140.099V46.5527H137.652C135.198 46.5527 133.971 45.7911 133.971 44.2678V37.4073H140.099ZM157.123 37.4073V34.3608H151.001V30.4131H146.099V34.3608H142.425V37.4073H146.099V44.2678C146.099 47.8201 148.954 49.5992 154.675 49.5992H157.123V46.5527H154.675C152.227 46.5527 151.001 45.7911 151.001 44.2678V37.4073H157.123ZM113.437 46.551C115.888 46.551 117.93 46.2969 119.563 45.7887V44.265C117.929 43.7574 115.887 43.5027 113.437 43.5027C110.987 43.5027 109.762 44.0108 109.762 45.0265C109.761 46.0434 110.987 46.551 113.437 46.551ZM114.662 34.3602C121.197 34.3602 124.464 36.3923 124.464 40.4557V49.5986H120.298L119.563 48.0748C117.929 49.0905 115.887 49.5986 113.437 49.5986C107.719 49.5986 104.86 48.0747 104.86 45.0265C104.86 41.9788 107.719 40.455 113.437 40.455C115.888 40.455 117.93 40.9632 119.563 41.9789V40.455C119.563 38.4236 117.929 37.4073 114.662 37.4073H107.311V34.3597L114.662 34.3602Z" fill="#251664"/>
<path d="M48.0489 49.5992L34.0471 16.4213H39.9948L47.5639 34.355H62.8663L69.3023 49.5992H48.0489Z" fill="#251664"/>
<path d="M38.786 34.6783H7.49064V31.9462H37.6331L31.0813 16.4213H7.49064V13.6893H38.8418L33.0644 0.000427246H0.000488281V49.5992H45.0825L38.786 34.6783Z" fill="#251664"/>
<mask id="mask0_2_211" style="mask-type:alpha" maskUnits="userSpaceOnUse" x="11" y="5" width="40" height="41">
<path d="M30.9039 45.8817C41.8562 45.8817 50.7348 36.7486 50.7348 25.4823C50.7348 14.216 41.8562 5.08295 30.9039 5.08295C19.9517 5.08295 11.0731 14.216 11.0731 25.4823C11.0731 36.7486 19.9517 45.8817 30.9039 45.8817Z" fill="#DD4661"/>
</mask>
<g mask="url(#mask0_2_211)">
<path fill-rule="evenodd" clip-rule="evenodd" d="M38.786 34.6783H7.49064V31.9462H37.6331L31.0813 16.4213H7.49064V13.6893H38.8418L33.0644 0.000427246H0.000488281V49.5992H45.0825L38.786 34.6783Z" fill="white"/>
<path d="M48.0489 49.5992L34.0471 16.4213H39.9948L47.5639 34.355H62.8663L69.3023 49.5992H48.0489Z" fill="white"/>
</g>
</svg>
