<svg width="158" height="50" viewBox="0 0 158 50" fill="none" xmlns="http://www.w3.org/2000/svg">
<path d="M30.9011 45.8817C41.8534 45.8817 50.7319 36.7486 50.7319 25.4823C50.7319 14.216 41.8534 5.08295 30.9011 5.08295C19.9489 5.08295 11.0703 14.216 11.0703 25.4823C11.0703 36.7486 19.9489 45.8817 30.9011 45.8817Z" fill="#C41735"/>
<path fill-rule="evenodd" clip-rule="evenodd" d="M104.858 34.3602L97.9284 49.5992H90.3977L85.2767 38.4439L80.1557 49.5992H72.6244L65.6953 34.3602H71.7203L76.5406 46.2463L81.6616 34.3602H88.8924L94.0134 46.3992L98.8336 34.3602H104.858ZM140.097 37.4073V34.3608H133.969V30.4131H129.068V34.3608H125.394V37.4073H129.068V44.2678C129.068 47.8201 131.928 49.5992 137.649 49.5992H140.097V46.5527H137.649C135.196 46.5527 133.969 45.7911 133.969 44.2678V37.4073H140.097ZM157.12 37.4073V34.3608H150.998V30.4131H146.097V34.3608H142.423V37.4073H146.097V44.2678C146.097 47.8201 148.952 49.5992 154.673 49.5992H157.12V46.5527H154.673C152.225 46.5527 150.998 45.7911 150.998 44.2678V37.4073H157.12ZM113.435 46.551C115.885 46.551 117.927 46.2969 119.56 45.7887V44.265C117.927 43.7574 115.885 43.5027 113.435 43.5027C110.985 43.5027 109.759 44.0108 109.759 45.0265C109.759 46.0434 110.984 46.551 113.435 46.551ZM114.66 34.3602C121.194 34.3602 124.462 36.3923 124.462 40.4557V49.5986H120.296L119.56 48.0748C117.927 49.0905 115.885 49.5986 113.435 49.5986C107.717 49.5986 104.858 48.0747 104.858 45.0265C104.858 41.9788 107.717 40.455 113.435 40.455C115.885 40.455 117.927 40.9632 119.56 41.9789V40.455C119.56 38.4236 117.927 37.4073 114.66 37.4073H107.309V34.3597L114.66 34.3602Z" fill="white"/>
<path d="M48.0486 49.5992L34.0469 16.4213H39.9945L47.5637 34.355H62.866L69.3021 49.5992H48.0486Z" fill="white"/>
<path d="M38.7855 34.6783H7.49015V31.9462H37.6326L31.0808 16.4213H7.49015V13.6893H38.8413L33.0639 0.000427246H0V49.5992H45.082L38.7855 34.6783Z" fill="white"/>
<mask id="mask0_33_27244" style="mask-type:alpha" maskUnits="userSpaceOnUse" x="11" y="5" width="40" height="41">
<path d="M30.9011 45.8817C41.8534 45.8817 50.7319 36.7486 50.7319 25.4823C50.7319 14.216 41.8534 5.08295 30.9011 5.08295C19.9489 5.08295 11.0703 14.216 11.0703 25.4823C11.0703 36.7486 19.9489 45.8817 30.9011 45.8817Z" fill="#DD4661"/>
</mask>
<g mask="url(#mask0_33_27244)">
<path fill-rule="evenodd" clip-rule="evenodd" d="M38.7855 34.6783H7.49015V31.9462H37.6326L31.0808 16.4213H7.49015V13.6893H38.8413L33.0639 0.000427246H0V49.5992H45.082L38.7855 34.6783Z" fill="#251664"/>
<path d="M48.0486 49.5992L34.0469 16.4213H39.9945L47.5637 34.355H62.866L69.3021 49.5992H48.0486Z" fill="#251664"/>
</g>
</svg>
