<svg width="24" height="24" viewBox="0 0 24 24" fill="none" xmlns="http://www.w3.org/2000/svg">
<path d="M21.2006 2.34715C20.6023 1.81179 18.2089 0.0482416 12.8238 0.0167496C12.8238 0.0167496 6.49386 -0.361158 3.40765 2.47312C1.67559 4.20518 1.07724 6.69305 1.01426 9.81076C0.951273 12.9285 0.856806 18.7545 6.49387 20.3606V22.7855C6.49387 22.7855 6.46238 23.7617 7.09222 23.9507C7.87952 24.2026 8.3204 23.4468 9.07621 22.6595C9.4856 22.2186 10.0525 21.5888 10.4619 21.0849C14.3039 21.3998 17.2641 20.6755 17.6105 20.5495C18.3978 20.2976 22.7752 19.7307 23.4995 13.9047C24.2554 7.85826 23.1846 4.04772 21.2006 2.34715ZM21.862 13.4323C21.2636 18.3136 17.705 18.6285 17.0437 18.8175C16.7603 18.9119 14.1779 19.5418 10.9027 19.3528C10.9027 19.3528 8.47786 22.2816 7.69056 23.0689C7.56459 23.1948 7.43862 23.2263 7.34415 23.2263C7.21818 23.1948 7.18669 23.0374 7.18669 22.8169C7.18669 22.502 7.21818 18.786 7.21818 18.786C2.46289 17.4633 2.74632 12.4876 2.77781 9.87374C2.84079 7.2599 3.31318 5.14994 4.76181 3.70131C7.37565 1.33941 12.7608 1.68582 12.7608 1.68582C17.2956 1.71731 19.4686 3.07147 19.9724 3.54385C21.61 4.99248 22.4603 8.42511 21.862 13.4323Z" fill="white"/>
<path fill-rule="evenodd" clip-rule="evenodd" d="M12.8987 7.77889C12.9077 7.61156 13.0507 7.48324 13.218 7.49229C13.8515 7.52653 14.3749 7.71802 14.7469 8.10449C15.1172 8.48918 15.2974 9.02569 15.3313 9.66891C15.3401 9.83626 15.2115 9.97906 15.0442 9.98787C14.8769 9.99668 14.7341 9.86816 14.7252 9.70081C14.6961 9.14729 14.5457 8.7705 14.3097 8.52532C14.0754 8.28193 13.7171 8.127 13.1853 8.09825C13.0179 8.08921 12.8896 7.94623 12.8987 7.77889Z" fill="white"/>
<path fill-rule="evenodd" clip-rule="evenodd" d="M12.4898 6.13381C12.503 5.96675 12.6491 5.84201 12.8161 5.8552C14.0722 5.95436 15.095 6.38839 15.8503 7.21238L15.8507 7.21282C16.5691 7.99965 16.9398 9.02265 16.9062 10.1975C16.9014 10.365 16.7618 10.4969 16.5943 10.4921C16.4268 10.4873 16.2948 10.3477 16.2996 10.1801C16.329 9.15056 16.007 8.28405 15.4028 7.62221C14.7724 6.93467 13.9057 6.54996 12.7684 6.46017C12.6013 6.44698 12.4766 6.30086 12.4898 6.13381Z" fill="white"/>
<path fill-rule="evenodd" clip-rule="evenodd" d="M11.8905 4.61458C11.8905 4.447 12.0263 4.31115 12.1939 4.31115C13.9691 4.31115 15.4635 4.90584 16.657 6.06616C17.8592 7.23494 18.481 8.83022 18.481 10.8187C18.481 10.9863 18.3452 11.1222 18.1776 11.1222C18.01 11.1222 17.8742 10.9863 17.8742 10.8187C17.8742 8.96508 17.2993 7.53702 16.234 6.50127C15.1599 5.45706 13.8199 4.918 12.1939 4.918C12.0263 4.918 11.8905 4.78216 11.8905 4.61458Z" fill="white"/>
<path d="M13.2646 13.7473C13.2646 13.7473 13.7055 13.7787 13.926 13.4953L14.3669 12.9285C14.5873 12.645 15.0912 12.4561 15.6265 12.7395C15.91 12.897 16.4138 13.2119 16.7288 13.4638C17.0752 13.7158 17.768 14.2826 17.768 14.2826C18.1144 14.566 18.1774 14.9754 17.9569 15.4163C17.7365 15.8257 17.4216 16.2036 17.0122 16.55C16.6973 16.8335 16.3823 16.9594 16.0674 17.0224H15.9415C15.8155 17.0224 15.658 16.9909 15.5321 16.9594C15.0597 16.8335 14.2724 16.4871 12.9182 15.7627C12.0679 15.2904 11.3436 14.7865 10.7453 14.3141C10.4304 14.0622 10.0839 13.7788 9.76902 13.4323L9.64306 13.3064C9.29665 12.96 9.01321 12.645 8.76128 12.3301C8.2889 11.7318 7.78502 11.0075 7.31264 10.1572C6.58833 8.8345 6.24192 8.04721 6.11595 7.54334C6.08446 7.41737 6.05296 7.2914 6.05296 7.13394V7.00797C6.08446 6.69305 6.24192 6.37813 6.52534 6.06321C6.87176 5.68531 7.24966 5.37039 7.65906 5.11845C8.09994 4.89801 8.50934 4.96099 8.79277 5.3074C8.79277 5.3074 9.35963 6.00023 9.61156 6.34665C9.83201 6.66157 10.1469 7.16544 10.3359 7.44886C10.6193 7.95274 10.4304 8.4881 10.1784 8.70854L9.61156 9.14943C9.32814 9.36987 9.35962 9.81076 9.35962 9.81076C9.35962 9.81076 10.1469 12.9285 13.2646 13.7473Z" fill="white"/>
</svg>
