<svg width="24" height="24" viewBox="0 0 24 24" fill="none" xmlns="http://www.w3.org/2000/svg">
<path fill-rule="evenodd" clip-rule="evenodd" d="M2.54719 17.351L1 23L6.78086 21.4841C8.3737 22.3526 10.1669 22.8104 11.9918 22.8112H11.9966C18.0067 22.8112 22.8991 17.9202 22.9017 11.9097C22.9028 8.99678 21.7698 6.25782 19.7107 4.19723C17.6516 2.13664 14.9137 1.00148 11.9967 1C5.9857 1 1.09411 5.89011 1.0916 11.901C1.08929 13.814 1.59135 15.6939 2.54719 17.351ZM2.93271 11.9017C2.93449 6.90595 7.00039 2.84153 12 2.84153C13.1908 2.83873 14.3703 3.07215 15.4702 3.52828C16.5701 3.9844 17.5686 4.65417 18.408 5.49882C19.252 6.33884 19.921 7.33795 20.3763 8.43829C20.8315 9.53862 21.064 10.7183 21.0602 11.9091C21.0583 16.9052 16.9924 20.9701 11.9966 20.9701H11.9932C10.3664 20.9692 8.77122 20.5324 7.37996 19.7067L7.0487 19.5105L3.61819 20.41L4.53399 17.0665L4.31834 16.7238C3.41064 15.2794 2.93025 13.6076 2.93271 11.9017Z" fill="white"/>
<path fill-rule="evenodd" clip-rule="evenodd" d="M9.26886 7.34361C9.06462 6.88994 8.84971 6.88075 8.6557 6.87289L8.1334 6.86652C7.9517 6.86652 7.65646 6.9347 7.40687 7.20741C7.15728 7.48012 6.45312 8.13922 6.45312 9.47979C6.45312 10.8204 7.42955 12.1157 7.5656 12.2977C7.70166 12.4798 9.45056 15.3185 12.2202 16.4106C14.5218 17.3183 14.9901 17.1378 15.4899 17.0924C15.9897 17.0471 17.102 16.4333 17.3289 15.797C17.5558 15.1608 17.556 14.6156 17.488 14.5017C17.4199 14.3877 17.2382 14.32 16.9655 14.1836C16.6928 14.0472 15.3534 13.3881 15.1037 13.2971C14.8539 13.2061 14.6724 13.1609 14.4905 13.4336C14.3087 13.7064 13.7871 14.3198 13.6281 14.5017C13.469 14.6835 13.3103 14.7063 13.0376 14.5701C12.7649 14.4339 11.8875 14.1461 10.8464 13.2178C10.0364 12.4956 9.48969 11.6037 9.33051 11.3311C9.17133 11.0585 9.31362 10.9109 9.45027 10.7752C9.57254 10.653 9.72268 10.457 9.85919 10.2979C9.99569 10.1389 10.0406 10.0252 10.1313 9.84365C10.222 9.6621 10.1768 9.50262 10.1086 9.36641C10.0404 9.23021 9.51104 7.88266 9.26886 7.34376" fill="white"/>
</svg>
