<svg width="237" height="24" viewBox="0 0 237 24" fill="none" xmlns="http://www.w3.org/2000/svg">
<g clip-path="url(#clip0_6_1549)">
<path d="M11.2189 23.0349C17.4149 23.0349 22.4377 18.0477 22.4377 11.8957C22.4377 5.74375 17.4149 0.756592 11.2189 0.756592C5.02286 0.756592 0 5.74375 0 11.8957C0 18.0477 5.02286 23.0349 11.2189 23.0349Z" fill="#FC3F1D"/>
<path d="M12.8741 6.9912H11.7443C9.80009 6.9912 8.82796 7.95642 8.82796 9.41728C8.82796 11.0347 9.4848 11.8434 10.9299 12.8086L12.0596 13.6173L8.82796 18.5999H6.22687L9.30089 14.0869C7.51428 12.8086 6.54215 11.6608 6.54215 9.57381C6.54215 6.9912 8.32876 5.21729 11.7443 5.21729H15.1599V18.5999H12.8741V6.9912Z" fill="white"/>
<path d="M58.3539 20.2956H60.7973L64.2392 7.61738V20.2956H66.9979V3.52173H63.1882L59.7464 15.8869L56.3571 3.52173H52.4686V20.2956H54.8857V7.61738L58.3539 20.2956ZM78.5846 12.0261C78.5846 9.07825 77.087 7.95651 74.013 7.95651C72.095 7.95651 70.5711 8.55651 69.7041 9.07825V11.4783C70.4923 10.9043 72.1738 10.2783 73.6714 10.2783C75.0639 10.2783 75.6945 10.7739 75.6945 12.0782V12.7565H75.2216C70.8076 12.7565 68.8371 14.2174 68.8371 16.6696C68.8371 19.1217 70.3347 20.5043 72.5942 20.5043C74.302 20.5043 75.0377 19.9565 75.5894 19.3565H75.7208C75.747 19.6696 75.8521 20.0869 75.931 20.3217H78.7422C78.6372 19.3304 78.5846 18.3391 78.5846 17.3478V12.0261ZM75.6945 17.4C75.3267 17.9217 74.6436 18.3652 73.6189 18.3652C72.4103 18.3652 71.806 17.6348 71.806 16.5652C71.806 15.1304 72.8044 14.6348 75.2741 14.6348H75.6945V17.4ZM83.6029 8.16521H80.923V23.8174H83.8131V18.8869C84.5487 19.9826 85.6259 20.5565 86.8608 20.5565C89.6721 20.5565 91.6163 18.313 91.6163 14.2174C91.6163 10.1478 89.7246 7.90434 86.9922 7.90434C85.6259 7.90434 84.5225 8.53042 83.7342 9.70434L83.6029 8.16521ZM86.1251 18.2869C84.6013 18.2869 83.8131 17.0609 83.8131 14.2435C83.8131 11.4261 84.6275 10.1739 86.2565 10.1739C87.8329 10.1739 88.6211 11.4 88.6211 14.2174C88.6211 17.0348 87.8067 18.2869 86.1251 18.2869ZM100.733 20.2956H104.018L99.3671 13.7478L103.466 8.13912H100.549L96.4507 13.7478V8.16521H93.5606V20.3217H96.4507V14.3478L100.733 20.2956ZM113.739 19.4869V17.1391C112.845 17.7391 111.322 18.2869 109.929 18.2869C107.801 18.2869 107.013 17.2956 106.881 15.2609H113.87V13.7478C113.87 9.52173 112.005 7.93042 109.115 7.93042C105.594 7.93042 103.912 10.6174 103.912 14.2696C103.912 18.4956 106.014 20.5565 109.693 20.5565C111.532 20.5565 112.898 20.0609 113.739 19.4869ZM109.062 10.2C110.507 10.2 110.928 11.3739 110.928 12.913V13.1478H106.881C106.96 11.1913 107.67 10.2 109.062 10.2ZM124.169 10.4348V8.16521H114.474V10.4348H117.89V20.3217H120.78V10.4348H124.169Z" fill="black"/>
<path d="M35.1805 23.0349C41.381 23.0349 46.3993 18.0522 46.3993 11.8957C46.3993 5.7392 41.381 0.756592 35.1805 0.756592C28.9799 0.756592 23.9616 5.7392 23.9616 11.8957C23.9353 18.0522 28.9799 23.0349 35.1805 23.0349Z" fill="#FED42B"/>
<path d="M46.1891 9.73052C44.6127 12.0783 43.0888 13.7218 42.2744 13.5131C40.8818 13.1218 42.143 8.60878 42.9575 5.71313V5.66096L38.3858 4.12183L32.9472 12.9914L33.6829 8.19139L29.6104 6.80878L24.1455 13.9827C24.4345 15.4957 25.0388 16.9044 25.8796 18.1566L29.7944 13.0175L29.085 18.261L33.2099 19.6436L38.1231 11.687C37.8866 13.2001 37.4925 16.5914 40.8293 17.6088C42.4583 18.1044 44.0084 17.5044 45.4535 16.3566C46.0578 14.974 46.3993 13.487 46.3993 11.8957C46.3993 11.1653 46.3205 10.4349 46.1891 9.73052Z" fill="black"/>
</g>
<path d="M145.849 6.92705C146.148 6.00574 147.452 6.00574 147.751 6.92705L148.821 10.2188C148.954 10.6309 149.338 10.9098 149.772 10.9098H153.233C154.202 10.9098 154.604 12.1494 153.821 12.7188L151.02 14.7533C150.67 15.0079 150.523 15.4593 150.657 15.8713L151.727 19.1631C152.026 20.0844 150.972 20.8506 150.188 20.2812L147.388 18.2467C147.037 17.9921 146.563 17.9921 146.212 18.2467L143.412 20.2812C142.628 20.8506 141.574 20.0844 141.873 19.1631L142.943 15.8713C143.077 15.4593 142.93 15.0079 142.579 14.7533L139.779 12.7188C138.996 12.1494 139.398 10.9098 140.367 10.9098H143.828C144.262 10.9098 144.645 10.6309 144.779 10.2188L145.849 6.92705Z" fill="#251664"/>
<path d="M165.849 6.92705C166.148 6.00574 167.452 6.00574 167.751 6.92705L168.821 10.2188C168.954 10.6309 169.338 10.9098 169.772 10.9098H173.233C174.202 10.9098 174.604 12.1494 173.821 12.7188L171.02 14.7533C170.67 15.0079 170.523 15.4593 170.657 15.8713L171.727 19.1631C172.026 20.0844 170.972 20.8506 170.188 20.2812L167.388 18.2467C167.037 17.9921 166.563 17.9921 166.212 18.2467L163.412 20.2812C162.628 20.8506 161.574 20.0844 161.873 19.1631L162.943 15.8713C163.077 15.4593 162.93 15.0079 162.579 14.7533L159.779 12.7188C158.996 12.1494 159.398 10.9098 160.367 10.9098H163.828C164.262 10.9098 164.645 10.6309 164.779 10.2188L165.849 6.92705Z" fill="#251664"/>
<path d="M185.849 6.92705C186.148 6.00574 187.452 6.00574 187.751 6.92705L188.821 10.2188C188.954 10.6309 189.338 10.9098 189.772 10.9098H193.233C194.202 10.9098 194.604 12.1494 193.821 12.7188L191.02 14.7533C190.67 15.0079 190.523 15.4593 190.657 15.8713L191.727 19.1631C192.026 20.0844 190.972 20.8506 190.188 20.2812L187.388 18.2467C187.037 17.9921 186.563 17.9921 186.212 18.2467L183.412 20.2812C182.628 20.8506 181.574 20.0844 181.873 19.1631L182.943 15.8713C183.077 15.4593 182.93 15.0079 182.579 14.7533L179.779 12.7188C178.996 12.1494 179.398 10.9098 180.367 10.9098H183.828C184.262 10.9098 184.645 10.6309 184.779 10.2188L185.849 6.92705Z" fill="#251664"/>
<path d="M205.849 6.92705C206.148 6.00574 207.452 6.00574 207.751 6.92705L208.821 10.2188C208.954 10.6309 209.338 10.9098 209.772 10.9098H213.233C214.202 10.9098 214.604 12.1494 213.821 12.7188L211.02 14.7533C210.67 15.0079 210.523 15.4593 210.657 15.8713L211.727 19.1631C212.026 20.0844 210.972 20.8506 210.188 20.2812L207.388 18.2467C207.037 17.9921 206.563 17.9921 206.212 18.2467L203.412 20.2812C202.628 20.8506 201.574 20.0844 201.873 19.1631L202.943 15.8713C203.077 15.4593 202.93 15.0079 202.579 14.7533L199.779 12.7188C198.996 12.1494 199.398 10.9098 200.367 10.9098H203.828C204.262 10.9098 204.645 10.6309 204.779 10.2188L205.849 6.92705Z" fill="#251664"/>
<path d="M225.849 6.92705C226.148 6.00574 227.452 6.00574 227.751 6.92705L228.821 10.2188C228.954 10.6309 229.338 10.9098 229.772 10.9098H233.233C234.202 10.9098 234.604 12.1494 233.821 12.7188L231.02 14.7533C230.67 15.0079 230.523 15.4593 230.657 15.8713L231.727 19.1631C232.026 20.0844 230.972 20.8506 230.188 20.2812L227.388 18.2467C227.037 17.9921 226.563 17.9921 226.212 18.2467L223.412 20.2812C222.628 20.8506 221.574 20.0844 221.873 19.1631L222.943 15.8713C223.077 15.4593 222.93 15.0079 222.579 14.7533L219.779 12.7188C218.996 12.1494 219.398 10.9098 220.367 10.9098H223.828C224.262 10.9098 224.645 10.6309 224.779 10.2188L225.849 6.92705Z" fill="#251664"/>
<defs>
<clipPath id="clip0_6_1549">
<rect width="124.8" height="24" fill="white"/>
</clipPath>
</defs>
</svg>
