<svg xmlns="http://www.w3.org/2000/svg" fill="none" viewBox="1 5 63 54">
<path d="M52.2517 26.365L41.9379 8.15764C40.7691 6.09425 38.1803 5.38746 36.1561 6.5787L4.11696 25.4319C2.09247 26.6231 1.39901 29.2617 2.56779 31.3248L12.9697 49.6879C13.9008 51.3315 15.8228 52.0444 17.539 51.4687M3.48898 32.9512L42.859 9.78405M6.59751 38.4391L17.539 32.0006M27.1162 26.365L45.9676 15.272M22.1243 45.9173H28.0341M22.1243 51.2497H29.2963M22.1243 54.2453H33.7299M30.7749 45.9173H36.6846M39.4257 45.9173H45.3354M48.0762 45.9173H53.9859M58.7675 58H21.7719C19.4344 58 17.5393 56.0686 17.5393 53.6861V30.6789C17.5393 28.2964 19.4344 26.365 21.7719 26.365H58.7675C61.105 26.365 63 28.2964 63 30.6789V53.6861C62.9997 56.0686 61.105 58 58.7675 58ZM30.9423 36.93V33.2154C30.9423 32.2777 30.1965 31.5179 29.2768 31.5179H23.7901C22.8701 31.5179 22.1246 32.278 22.1246 33.2154V36.93C22.1246 37.8677 22.8704 38.6277 23.7901 38.6277H29.2768C30.1965 38.6274 30.9423 37.8677 30.9423 36.93Z" stroke="#251664" stroke-width="2" stroke-miterlimit="10" stroke-linecap="round" stroke-linejoin="round"/>
</svg>