<svg width="64" height="64" viewBox="0 0 64 64" fill="none" xmlns="http://www.w3.org/2000/svg">
<path d="M35.8448 50.0443V29.1973M35.8448 50.0443L22.018 58L4 47.633L10.0388 44.1584M35.8448 50.0443L60 36.1462L53.9612 32.6716M35.8448 29.1973L22.018 37.153L4.11704 26.8535L42.0991 5L60 15.2996L47.1197 22.7106M35.8448 29.1973L17.9439 18.8981L29.2188 12.411L47.1197 22.7106M47.1197 22.7106L47.1194 43.5572M35.8448 36.1462L22.018 44.1019L4 33.7349L10.0388 30.2603M47.1194 29.6591L59.9997 22.2485L53.9609 18.7739M35.8448 43.1237L22.018 51.0794L4 40.7124L10.0388 37.2378M47.1194 36.6362L59.9997 29.2256L53.9609 25.751" stroke="black" stroke-width="2" stroke-miterlimit="10" stroke-linecap="round" stroke-linejoin="round"/>
</svg>
