<svg width="24" height="24" viewBox="0 0 24 24" fill="none" xmlns="http://www.w3.org/2000/svg">
<path d="M11.8937 1.63054e-05C6.98184 0.00812714 2.99063 3.96042 3.00002 8.81186C3.00354 9.81761 3.17594 10.784 3.49144 11.6843C4.04737 13.2589 5.04311 14.6308 6.3309 15.6551C7.50141 16.6064 8.31419 17.969 8.54407 19.517H8.54641C8.55932 19.6317 8.63555 19.7267 8.74111 19.7638C8.74345 19.765 8.7458 19.765 8.75049 19.765C8.75753 19.7684 8.76574 19.7684 8.7716 19.7719C9.57618 19.9944 10.4159 20.1369 11.2803 20.1844C11.4961 20.196 11.7108 20.2006 11.9289 20.2006C12.1424 20.2006 12.3511 20.1937 12.5623 20.1821C13.4313 20.1346 14.277 19.9921 15.0851 19.7627H15.0874C15.0874 19.7627 15.0897 19.7627 15.0897 19.7615C15.1883 19.7291 15.2657 19.6456 15.2891 19.5471C15.2891 19.5309 15.2915 19.517 15.2915 19.5031C15.5073 18.0316 16.2509 16.7269 17.3252 15.7826C17.4577 15.6655 17.5973 15.552 17.7427 15.4454C18.9144 14.4396 19.8198 13.1373 20.3347 11.6553C20.6514 10.7538 20.8203 9.78632 20.8179 8.78405C20.8086 3.93493 16.8068 -0.00925323 11.8937 1.63054e-05ZM15.6386 13.7351C14.4623 14.7432 13.5568 16.0467 13.0408 17.5287C12.954 17.5403 12.8684 17.5507 12.7792 17.5577C12.5001 17.5855 12.2139 17.6005 11.9242 17.6005C11.6263 17.6005 11.3331 17.5866 11.0446 17.5577C10.9601 17.5507 10.8734 17.5403 10.7877 17.531C10.233 15.9587 9.23723 14.5845 7.95061 13.559V13.5567C6.56313 12.4305 5.67646 10.7202 5.67177 8.80955C5.6659 5.41226 8.45962 2.64415 11.9008 2.63836C15.3384 2.6314 18.1415 5.39141 18.1462 8.78869C18.1485 10.6217 17.3393 12.2694 16.0526 13.4038C15.9201 13.5173 15.7817 13.6309 15.6386 13.7351Z" fill="#E85C3D"/>
<path d="M14.9502 7.79688C14.3861 7.79688 13.9252 8.22791 13.8841 8.77365V8.79683C13.8841 8.82811 13.8841 8.86287 13.8818 8.893C13.8794 8.89532 13.8794 8.89532 13.8818 8.89532C13.8302 9.92655 12.9658 10.7481 11.9137 10.7481C10.8429 10.7515 9.97148 9.91149 9.93512 8.86519V8.84318C9.92222 8.27078 9.44839 7.80962 8.86431 7.81194C8.27437 7.81194 7.79937 8.28469 7.79937 8.86751C7.83338 11.0783 9.67123 12.8638 11.9161 12.8604C14.1421 12.8557 15.9542 11.098 16.0187 8.9127C16.021 8.90806 16.021 8.90343 16.021 8.89647V8.83159C16.0093 8.25572 15.5331 7.79572 14.9502 7.79688Z" fill="#E85C3D"/>
<path d="M15.1249 20.7418C15.1167 20.7418 15.1097 20.7418 15.1015 20.7441C15.1015 20.7441 15.0944 20.7452 15.0944 20.7464C14.2875 20.955 13.4501 21.0882 12.5881 21.1322C12.3711 21.1438 12.1506 21.1519 11.9278 21.1519C11.7014 21.1519 11.4739 21.1473 11.2522 21.1334C10.3878 21.0917 9.54687 20.9596 8.73878 20.751C8.73526 20.751 8.73056 20.7476 8.72587 20.7476C8.71766 20.7464 8.7118 20.7452 8.70476 20.7452C8.64964 20.7452 8.60624 20.7869 8.59686 20.8379C8.59686 20.8507 8.59921 20.8623 8.60156 20.8727V20.875C8.66137 22.1658 9.4765 23.2631 10.62 23.7416C11.0188 23.9085 11.4586 24 11.9184 24C12.3816 23.9977 12.8226 23.9038 13.2261 23.7335C14.3661 23.248 15.1754 22.1473 15.2258 20.8576C15.2282 20.853 15.2282 20.8518 15.2282 20.8484V20.8449C15.2282 20.7858 15.1812 20.7418 15.1249 20.7418Z" fill="#E85C3D"/>
</svg>
