<svg xmlns="http://www.w3.org/2000/svg" fill="none" viewBox="-0.5 0 66 64">
<g clip-path="url(#clip0_196_11006)">
<path d="M17.1573 37.3676L15.3773 36.43L6.18311 41.2563L7.93866 31.0331L0.500031 23.7938L10.7802 22.3019L15.3773 13L19.9744 22.3019L21.9096 22.5791M47.8427 37.3676L49.6228 36.43L58.817 41.2563L57.0614 31.0331L64.5 23.7938L54.2199 22.3019L49.6228 13L45.0257 22.3019L43.0905 22.5791M32.5 13L38.7057 25.5547L52.5786 27.5684L42.5434 37.335L44.9114 51.137L32.5 44.6232L20.0887 51.137L22.4566 37.335L12.4214 27.5684L26.2944 25.5547L32.5 13Z" stroke="#251664" stroke-width="2" stroke-linecap="round" stroke-linejoin="round"/>
</g>
<defs>
<clipPath id="clip0_196_11006">
<rect width="64" height="64" fill="white" transform="translate(0.500031)"/>
</clipPath>
</defs>
</svg>