<svg width="64" height="64" viewBox="0 0 64 64" fill="none" xmlns="http://www.w3.org/2000/svg">
<g clip-path="url(#clip0_6_1498)">
<path d="M16.6573 37.3676L14.8773 36.43L5.68308 41.2563L7.43863 31.0331L0 23.7938L10.2802 22.3019L14.8773 13L19.4744 22.3019L21.4095 22.5791M47.3427 37.3676L49.1227 36.43L58.3169 41.2563L56.5614 31.0331L64 23.7938L53.7198 22.3019L49.1227 13L44.5257 22.3019L42.5905 22.5791M32 13L38.2057 25.5547L52.0786 27.5684L42.0434 37.335L44.4113 51.137L32 44.6232L19.5887 51.137L21.9566 37.335L11.9214 27.5684L25.7943 25.5547L32 13Z" stroke="#030303" stroke-width="2" stroke-linecap="round" stroke-linejoin="round"/>
</g>
<defs>
<clipPath id="clip0_6_1498">
<rect width="64" height="64" fill="white"/>
</clipPath>
</defs>
</svg>
