<svg width="24" height="24" viewBox="0 0 24 24" fill="none" xmlns="http://www.w3.org/2000/svg">
<mask id="path-1-inside-1_30_13276" fill="white">
<path d="M12 2L15.0776 8.76399L22.4616 9.60081L16.9797 14.618L18.4656 21.8992L12 18.236L5.53431 21.8992L7.02022 14.618L1.53833 9.60081L8.92231 8.76399L12 2Z"/>
</mask>
<path d="M12 2L15.0776 8.76399L22.4616 9.60081L16.9797 14.618L18.4656 21.8992L12 18.236L5.53431 21.8992L7.02022 14.618L1.53833 9.60081L8.92231 8.76399L12 2Z" fill="#030303"/>
<path d="M12 2L13.8204 1.1717L12 -2.82918L10.1795 1.1717L12 2ZM15.0776 8.76399L13.2572 9.59229L13.7265 10.6237L14.8524 10.7513L15.0776 8.76399ZM22.4616 9.60081L23.8119 11.0762L27.0544 8.10851L22.6868 7.61353L22.4616 9.60081ZM16.9797 14.618L15.6294 13.1427L14.7935 13.9077L15.0201 15.0179L16.9797 14.618ZM18.4656 21.8992L17.4797 23.6393L21.3041 25.8061L20.4252 21.4993L18.4656 21.8992ZM12 18.236L12.9858 16.4959L12 15.9373L11.0141 16.4959L12 18.236ZM5.53431 21.8992L3.5747 21.4993L2.69579 25.8061L6.5202 23.6393L5.53431 21.8992ZM7.02022 14.618L8.97983 15.0179L9.2064 13.9077L8.37052 13.1427L7.02022 14.618ZM1.53833 9.60081L1.31311 7.61353L-3.05449 8.10851L0.188031 11.0762L1.53833 9.60081ZM8.92231 8.76399L9.14753 10.7513L10.2734 10.6237L10.7427 9.59229L8.92231 8.76399ZM10.1795 2.8283L13.2572 9.59229L16.898 7.93569L13.8204 1.1717L10.1795 2.8283ZM14.8524 10.7513L22.2364 11.5881L22.6868 7.61353L15.3028 6.77671L14.8524 10.7513ZM21.1113 8.12545L15.6294 13.1427L18.33 16.0934L23.8119 11.0762L21.1113 8.12545ZM15.0201 15.0179L16.506 22.2991L20.4252 21.4993L18.9393 14.2181L15.0201 15.0179ZM19.4515 20.1591L12.9858 16.4959L11.0141 19.9761L17.4797 23.6393L19.4515 20.1591ZM11.0141 16.4959L4.54843 20.1591L6.5202 23.6393L12.9858 19.9761L11.0141 16.4959ZM7.49392 22.2991L8.97983 15.0179L5.06061 14.2181L3.5747 21.4993L7.49392 22.2991ZM8.37052 13.1427L2.88863 8.12545L0.188031 11.0762L5.66992 16.0934L8.37052 13.1427ZM1.76355 11.5881L9.14753 10.7513L8.69709 6.77671L1.31311 7.61353L1.76355 11.5881ZM10.7427 9.59229L13.8204 2.8283L10.1795 1.1717L7.10189 7.93569L10.7427 9.59229Z" fill="#030303" mask="url(#path-1-inside-1_30_13276)"/>
</svg>
