<svg width="64" height="64" viewBox="0 0 64 64" fill="none" xmlns="http://www.w3.org/2000/svg">
<path d="M32.0817 28.9225C32.106 28.9721 33.6959 32.208 33.5948 32.0013C33.9562 32.8729 34.895 33.3768 35.9568 33.1405L47.0507 30.6886C48.1081 30.4517 48.9306 29.4288 48.8333 28.367C48.7419 27.3685 47.8007 26.7557 46.7608 26.8987L37.5053 28.1705L32.9329 17.3859C32.338 15.9832 30.9085 15.1704 29.2796 15.308L24.6439 15.7005C22.3724 15.8931 20.4328 17.8475 20.2961 20.0815L18.1612 46.1815L11.3154 58.7652C9.89415 61.5279 13.6296 63.4044 15.4968 60.6456L22.6118 49.9485L24.7655 42.6595C24.9644 41.9868 25.8954 41.9309 26.1731 42.5754L28.9144 48.933L29.9206 59.8747C30.2173 62.7497 34.7354 62.7449 34.8448 59.6339V47.4086L31.5315 37.8351L31.8647 31.5742M31.6347 6.09973L31.3375 9.58519C30.8511 14.3712 24.0806 14.3372 23.6136 9.58519L23.385 6.38479C23.2245 4.12795 24.9269 2.16051 27.1838 2H36.7704C36.7704 3.77045 35.3404 5.19316 33.57 5.19316H29.8963M51.0318 24.3106H39.8026C38.4052 24.3106 37.2724 23.1778 37.2724 21.7804V13.9773C37.2724 12.5799 38.4052 11.4471 39.8026 11.4471H51.0318C52.4292 11.4471 53.5619 12.5799 53.5619 13.9773V21.7804C53.5619 23.1778 52.4292 24.3106 51.0318 24.3106Z" stroke="black" stroke-width="2" stroke-miterlimit="10" stroke-linecap="round" stroke-linejoin="round"/>
</svg>
