<svg xmlns="http://www.w3.org/2000/svg" fill="none" viewBox="5 0 14.65 24">
<path d="M19.1747 14.7692C19.7366 14.2074 19.8169 13.4047 19.3353 12.602C18.9339 11.9599 18.2115 11.6388 17.4089 11.7993C17.0878 11.8796 16.7667 12.0401 16.4456 12.2809C13.9574 13.9666 10.5861 13.8863 8.09782 12.2007C7.93729 12.1204 7.77675 12.0401 7.61621 11.9599C6.73327 11.5585 5.85034 11.7191 5.36873 12.5218C4.80686 13.3244 4.88712 14.2074 5.60953 14.9298C5.77006 15.0903 5.9306 15.1706 6.01086 15.3311L6.09114 15.4114C7.21488 16.2943 8.57943 16.8562 10.3453 17.097L9.30184 18.1405C8.4189 19.0234 7.45569 19.9866 6.57275 20.8696C6.33194 21.1104 6.01086 21.5117 6.01086 22.0736C6.01086 22.796 6.41221 23.5184 7.13462 23.8395C7.37542 24 7.61622 24 7.85702 24C8.25836 24 8.73996 23.8395 9.06103 23.4381C10.265 22.2341 11.2283 21.2709 12.1915 20.3077C12.2717 20.2274 12.2717 20.2274 12.2717 20.2274C12.2717 20.2274 12.352 20.2274 12.352 20.3077C12.9941 21.0301 13.7166 21.6722 14.3587 22.3946C14.6798 22.7157 15.0008 23.0368 15.3219 23.3579C15.7232 23.7592 16.0443 23.9197 16.5259 23.9197C17.2483 24 18.051 23.5184 18.3721 22.796C18.6931 22.1538 18.5326 21.3512 17.9707 20.8696C17.1681 20.0669 16.3654 19.1839 15.4824 18.3813L14.1179 17.0167C14.8403 16.9365 15.643 16.7759 16.3654 16.4549C17.5694 16.0535 18.4523 15.4916 19.1747 14.7692Z" fill="currentColor"/>
<path d="M12.2717 12.5217C15.7232 12.5217 18.5326 9.79263 18.5326 6.34113C18.5326 4.65551 17.8905 3.05017 16.6864 1.84616C15.4824 0.642143 13.9574 0 12.352 0C8.9005 0 6.1714 2.80936 6.09114 6.1806C6.09114 7.86622 6.73328 9.3913 7.93729 10.5953C9.06104 11.8796 10.5861 12.5217 12.2717 12.5217ZM10.5058 4.49499C10.9875 4.01338 11.6296 3.77257 12.2717 3.77257C13.7165 3.77257 14.76 4.89632 14.76 6.26087C14.76 7.70569 13.6363 8.74916 12.2717 8.74916C10.8269 8.74916 9.78345 7.62542 9.78345 6.26087C9.78345 5.61873 10.0242 4.97659 10.5058 4.49499Z" fill="currentColor"/>
<path d="M19.1747 14.7692C19.7366 14.2074 19.8169 13.4047 19.3353 12.602C18.9339 11.9599 18.2115 11.6388 17.4089 11.7993C17.0878 11.8796 16.7667 12.0401 16.4456 12.2809C13.9574 13.9666 10.5861 13.8863 8.09782 12.2007C7.93729 12.1204 7.77675 12.0401 7.61621 11.9599C6.73327 11.5585 5.85034 11.7191 5.36873 12.5218C4.80686 13.3244 4.88712 14.2074 5.60953 14.9298C5.77006 15.0903 5.9306 15.1706 6.01086 15.3311L6.09114 15.4114C7.21488 16.2943 8.57943 16.8562 10.3453 17.097L9.30184 18.1405C8.4189 19.0234 7.45569 19.9866 6.57275 20.8696C6.33194 21.1104 6.01086 21.5117 6.01086 22.0736C6.01086 22.796 6.41221 23.5184 7.13462 23.8395C7.37542 24 7.61622 24 7.85702 24C8.25836 24 8.73996 23.8395 9.06103 23.4381C10.265 22.2341 11.2283 21.2709 12.1915 20.3077C12.2717 20.2274 12.2717 20.2274 12.2717 20.2274C12.2717 20.2274 12.352 20.2274 12.352 20.3077C12.9941 21.0301 13.7166 21.6722 14.3587 22.3946C14.6798 22.7157 15.0008 23.0368 15.3219 23.3579C15.7232 23.7592 16.0443 23.9197 16.5259 23.9197C17.2483 24 18.051 23.5184 18.3721 22.796C18.6931 22.1538 18.5326 21.3512 17.9707 20.8696C17.1681 20.0669 16.3654 19.1839 15.4824 18.3813L14.1179 17.0167C14.8403 16.9365 15.643 16.7759 16.3654 16.4549C17.5694 16.0535 18.4523 15.4916 19.1747 14.7692Z" fill="currentColor"/>
</svg>