<svg xmlns="http://www.w3.org/2000/svg" fill="none" viewBox="5 5 14 14">
<path fill-rule="evenodd" clip-rule="evenodd" d="M8.0625 5C6.372 5 5 6.372 5 8.0625C5 9.753 6.372 11.125 8.0625 11.125C9.753 11.125 11.125 9.753 11.125 8.0625C11.125 6.372 9.753 5 8.0625 5ZM8.0625 6.75C7.338 6.75 6.75 7.338 6.75 8.0625C6.75 8.787 7.338 9.375 8.0625 9.375C8.787 9.375 9.375 8.787 9.375 8.0625C9.375 7.338 8.787 6.75 8.0625 6.75ZM15.9375 12.875C14.247 12.875 12.875 14.247 12.875 15.9375C12.875 17.628 14.247 19 15.9375 19C17.628 19 19 17.628 19 15.9375C19 14.247 17.628 12.875 15.9375 12.875ZM15.9375 14.625C15.213 14.625 14.625 15.213 14.625 15.9375C14.625 16.662 15.213 17.25 15.9375 17.25C16.662 17.25 17.25 16.662 17.25 15.9375C17.25 15.213 16.662 14.625 15.9375 14.625ZM7.04518 18.1923C6.70627 18.5312 6.15691 18.5313 5.81282 18.1872C5.47111 17.8455 5.4758 17.2868 5.80774 16.9548L16.9548 5.80774C17.2937 5.46884 17.8431 5.46872 18.1872 5.81282C18.5289 6.15452 18.5242 6.71324 18.1923 7.04518L7.04518 18.1923Z" fill="currentColor"/>
</svg>