<svg width="20" height="18" viewBox="0 0 20 18" fill="none" xmlns="http://www.w3.org/2000/svg">
<path d="M17 4H16V0H4V4H3C2.20435 4 1.44129 4.31607 0.87868 4.87868C0.31607 5.44129 0 6.20435 0 7V16H4V18H16V16H20V7C20 6.20435 19.6839 5.44129 19.1213 4.87868C18.5587 4.31607 17.7956 4 17 4ZM6 2H14V4H6V2ZM14 16H6V14H14V16ZM18 14H16V12H4V14H2V7C2.00029 6.73487 2.10574 6.48069 2.29321 6.29321C2.48069 6.10574 2.73487 6.00029 3 6H17C17.2651 6.00029 17.5193 6.10574 17.7068 6.29321C17.8943 6.48069 17.9997 6.73487 18 7V14ZM5 7.75C4.75277 7.75 4.5111 7.8233 4.30554 7.9607C4.09998 8.098 3.93976 8.2932 3.84515 8.5216C3.75054 8.7501 3.72579 9.0014 3.77402 9.2439C3.82225 9.4863 3.9413 9.7091 4.11612 9.8839C4.29093 10.0587 4.51366 10.1778 4.75614 10.226C4.99861 10.2742 5.24995 10.2495 5.47835 10.1548C5.70676 10.0602 5.90199 9.9 6.03934 9.6945C6.17669 9.4889 6.25 9.2472 6.25 9C6.25 8.6685 6.1183 8.3505 5.88388 8.1161C5.64946 7.8817 5.33152 7.75 5 7.75Z" fill="currentColor"/>
</svg>
