<svg width="20" height="22" viewBox="0 0 20 22" fill="none" xmlns="http://www.w3.org/2000/svg">
<path d="M7.99923 5H11.9992V8L15.9992 4L11.9992 0V3H7.99923C6.47729 2.99883 4.98665 3.4322 3.70256 4.24915C2.41846 5.0661 1.3943 6.23267 0.750457 7.61172C0.106617 8.99077 -0.130123 10.525 0.0680666 12.034C0.266247 13.5429 0.891127 14.964 1.86923 16.13L3.29123 14.7079C2.59248 13.8244 2.15697 12.7617 2.03466 11.6419C1.91235 10.5221 2.1082 9.3905 2.59974 8.37699C3.09128 7.36344 3.85859 6.50899 4.81364 5.91167C5.76869 5.31436 6.87278 4.99838 7.99923 5ZM18.1292 5.87L16.7072 7.2921C17.4059 8.17564 17.8414 9.2383 17.9638 10.3581C18.0861 11.4779 17.8902 12.6095 17.3987 13.623C16.9071 14.6366 16.1398 15.491 15.1848 16.0883C14.2297 16.6856 13.1256 17.0016 11.9992 17H7.99923V14L3.99923 18L7.99923 22V19H11.9992C13.5211 19.0012 15.0118 18.5678 16.2959 17.7508C17.58 16.9339 18.6041 15.7673 19.248 14.3883C19.8918 13.0092 20.1285 11.475 19.9304 9.966C19.7322 8.45706 19.1073 7.03603 18.1292 5.87Z" fill="currentColor"/>
</svg>
