<svg xmlns="http://www.w3.org/2000/svg" fill="none" viewBox="9 1 45.44 62">
<path d="M39.6033 19.5096C37.3212 18.0664 34.617 17.2307 31.7177 17.2307C23.5601 17.2307 16.9478 23.8437 16.9478 32.0007C16.9478 40.1576 23.5601 46.7706 31.7177 46.7706C39.8746 46.7706 46.4876 40.1576 46.4876 32.0007C46.4876 28.1933 45.0471 24.7227 42.6816 22.1039M22.6993 28.0201L31.7177 36.1409L46.4876 17.2301M31.7177 62L14.7045 52.4838C11.7994 50.859 10 47.7911 10 44.4626V9.17787C23.2518 9.17787 31.7177 2 31.7177 2C31.7177 2 40.1836 9.17787 53.4353 9.17787V44.4626C53.4353 47.7911 51.636 50.859 48.7309 52.4838L31.7177 62Z" stroke="#251664" stroke-width="2" stroke-miterlimit="10" stroke-linecap="round" stroke-linejoin="round"/>
</svg>