<svg xmlns="http://www.w3.org/2000/svg" fill="none" viewBox="-4.05 -4.83 30.11 28.64">
<mask id="path-1-inside-1_30_13275" fill="white">
<path d="M11 0L14.0776 6.76399L21.4616 7.60081L15.9797 12.618L17.4656 19.8992L11 16.236L4.53431 19.8992L6.02022 12.618L0.53833 7.60081L7.92231 6.76399L11 0Z"/>
</mask>
<path d="M11 0L14.0776 6.76399L21.4616 7.60081L15.9797 12.618L17.4656 19.8992L11 16.236L4.53431 19.8992L6.02022 12.618L0.53833 7.60081L7.92231 6.76399L11 0Z" fill="#F2994A"/>
<path d="M11 0L12.8204 -0.828298L11 -4.82918L9.17953 -0.828298L11 0ZM14.0776 6.76399L12.2572 7.59229L12.7265 8.62367L13.8524 8.75127L14.0776 6.76399ZM21.4616 7.60081L22.8119 9.07617L26.0544 6.10851L21.6868 5.61353L21.4616 7.60081ZM15.9797 12.618L14.6294 11.1427L13.7935 11.9077L14.0201 13.0179L15.9797 12.618ZM17.4656 19.8992L16.4797 21.6393L20.3041 23.8061L19.4252 19.4993L17.4656 19.8992ZM11 16.236L11.9858 14.4959L11 13.9373L10.0141 14.4959L11 16.236ZM4.53431 19.8992L2.5747 19.4993L1.69579 23.8061L5.5202 21.6393L4.53431 19.8992ZM6.02022 12.618L7.97983 13.0179L8.2064 11.9077L7.37052 11.1427L6.02022 12.618ZM0.53833 7.60081L0.313112 5.61353L-4.05449 6.10851L-0.811969 9.07617L0.53833 7.60081ZM7.92231 6.76399L8.14753 8.75127L9.27344 8.62367L9.74273 7.59229L7.92231 6.76399ZM9.17953 0.828298L12.2572 7.59229L15.898 5.93569L12.8204 -0.828298L9.17953 0.828298ZM13.8524 8.75127L21.2364 9.58809L21.6868 5.61353L14.3028 4.77671L13.8524 8.75127ZM20.1113 6.12545L14.6294 11.1427L17.33 14.0934L22.8119 9.07617L20.1113 6.12545ZM14.0201 13.0179L15.506 20.2991L19.4252 19.4993L17.9393 12.2181L14.0201 13.0179ZM18.4515 18.1591L11.9858 14.4959L10.0141 17.9761L16.4797 21.6393L18.4515 18.1591ZM10.0141 14.4959L3.54843 18.1591L5.5202 21.6393L11.9858 17.9761L10.0141 14.4959ZM6.49392 20.2991L7.97983 13.0179L4.06061 12.2181L2.5747 19.4993L6.49392 20.2991ZM7.37052 11.1427L1.88863 6.12545L-0.811969 9.07617L4.66992 14.0934L7.37052 11.1427ZM0.763548 9.58809L8.14753 8.75127L7.69709 4.77671L0.313112 5.61353L0.763548 9.58809ZM9.74273 7.59229L12.8204 0.828298L9.17953 -0.828298L6.10189 5.93569L9.74273 7.59229Z" fill="#F2994A" mask="url(#path-1-inside-1_30_13275)"/>
</svg>
