<?xml version="1.0" encoding="utf-8"?>
<!-- Generator: Adobe Illustrator 23.1.0, SVG Export Plug-In . SVG Version: 6.00 Build 0)  -->
<svg version="1.1" id="Слой_1" xmlns="http://www.w3.org/2000/svg" xmlns:xlink="http://www.w3.org/1999/xlink" x="0px" y="0px"
	 viewBox="0 0 16 19" style="enable-background:new 0 0 16 19;" xml:space="preserve">
<path d="M8,8c0.8,0,1.6-0.2,2.2-0.7c0.7-0.4,1.2-1.1,1.5-1.8C12,4.8,12.1,4,11.9,3.2c-0.2-0.8-0.5-1.5-1.1-2c-0.6-0.6-1.3-0.9-2-1.1
	C8-0.1,7.2,0,6.5,0.3C5.7,0.6,5.1,1.1,4.7,1.8C4.2,2.4,4,3.2,4,4c0,1.1,0.4,2.1,1.2,2.8C5.9,7.6,6.9,8,8,8z"/>
<path d="M8,2c0.4,0,0.8,0.1,1.1,0.3c0.3,0.2,0.6,0.5,0.7,0.9C10,3.6,10,4,10,4.4c-0.1,0.4-0.3,0.7-0.5,1C9.1,5.7,8.8,5.9,8.4,6
	C8,6,7.6,6,7.2,5.8C6.9,5.7,6.6,5.4,6.3,5.1C6.1,4.8,6,4.4,6,4c0-0.5,0.2-1,0.6-1.4C7,2.2,7.5,2,8,2z"/>
<path d="M15.7,13.2c-2-2-4.8-3.2-7.7-3.2c-2.9,0-5.7,1.1-7.7,3.2L0,13.5V19h16v-5.5L15.7,13.2z"/>
<path d="M14,17H2v-2.7C3.6,12.8,5.8,12,8,12c2.2,0,4.4,0.8,6,2.3V17z"/>
</svg>
