<svg xmlns="http://www.w3.org/2000/svg" fill="none" viewBox="0 5 23.69 14">
<path fill-rule="evenodd" clip-rule="evenodd" d="M19.6818 11.8643C19.6818 11.8643 22.8028 7.41985 23.114 5.95954C23.2174 5.43831 22.9891 5.14646 22.4517 5.14646H19.7432C19.1229 5.14646 18.8957 5.41677 18.7094 5.81415C18.7094 5.81415 17.2448 8.962 15.4646 10.9468C14.8917 11.5875 14.6009 11.7814 14.2854 11.7814C14.0312 11.7814 13.9138 11.566 13.9138 10.9877V5.91754C13.9138 5.20892 13.8309 5 13.2515 5H8.91154C8.57985 5 8.37308 5.19385 8.37308 5.45877C8.37308 6.12646 9.38539 6.27723 9.38539 8.08754V11.8223C9.38539 12.574 9.34446 12.8658 8.99339 12.8658C8.06292 12.8658 5.85092 9.63185 4.61031 5.95954C4.36262 5.20892 4.09338 5 3.39015 5H0.682769C0.289692 5 0 5.27138 0 5.66769C0 6.39785 0.847539 9.77831 4.17631 14.3046C6.40877 17.3523 9.34554 19 11.9905 19C13.6037 19 13.9968 18.7286 13.9968 18.0405V15.7035C13.9968 15.1188 14.2229 14.8689 14.5546 14.8689C14.9262 14.8689 15.5831 14.9895 17.1177 16.5166C18.9377 18.2709 19.0615 19 20.0534 19H23.0925C23.4026 19 23.6923 18.8535 23.6923 18.3323C23.6923 17.6431 22.8028 16.4132 21.4383 14.9518C20.8805 14.2012 19.9715 13.3871 19.6818 13.0123C19.2683 12.574 19.3922 12.3231 19.6818 11.8643Z" fill="currentColor"/>
</svg>