<svg width="24" height="24" viewBox="0 0 24 24" fill="none" xmlns="http://www.w3.org/2000/svg">
<path fill-rule="evenodd" clip-rule="evenodd" d="M2.54719 17.351L1 23L6.78086 21.4841C8.3737 22.3526 10.1669 22.8104 11.9918 22.8112H11.9966C18.0067 22.8112 22.8991 17.9202 22.9017 11.9097C22.9028 8.99678 21.7698 6.25782 19.7107 4.19723C17.6516 2.13664 14.9137 1.00148 11.9967 1C5.9857 1 1.09411 5.89011 1.0916 11.901C1.08929 13.814 1.59135 15.6939 2.54719 17.351ZM2.93271 11.9017C2.93449 6.90595 7.00039 2.84153 12 2.84153C13.1908 2.83873 14.3703 3.07215 15.4702 3.52828C16.5701 3.9844 17.5686 4.65417 18.408 5.49882C19.252 6.33884 19.921 7.33795 20.3763 8.43829C20.8315 9.53862 21.064 10.7183 21.0602 11.9091C21.0583 16.9052 16.9924 20.9701 11.9966 20.9701H11.9932C10.3664 20.9692 8.77122 20.5324 7.37996 19.7067L7.0487 19.5105L3.61819 20.41L4.53399 17.0665L4.31834 16.7238C3.41064 15.2794 2.93025 13.6076 2.93271 11.9017Z" fill="#27AE60"/>
<path fill-rule="evenodd" clip-rule="evenodd" d="M9.27105 7.34361C9.06682 6.88993 8.85191 6.88074 8.6579 6.87289L8.1356 6.86652C7.95389 6.86652 7.65866 6.93469 7.40907 7.2074C7.15948 7.48011 6.45532 8.13921 6.45532 9.47979C6.45532 10.8204 7.43174 12.1157 7.5678 12.2977C7.70386 12.4797 9.45276 15.3185 12.2224 16.4106C14.524 17.3183 14.9923 17.1378 15.4921 17.0924C15.9919 17.0471 17.1042 16.4333 17.3311 15.797C17.558 15.1608 17.5582 14.6156 17.4902 14.5017C17.4221 14.3877 17.2404 14.32 16.9677 14.1836C16.695 14.0472 15.3556 13.3881 15.1059 13.2971C14.8561 13.2061 14.6746 13.1609 14.4927 13.4336C14.3109 13.7064 13.7893 14.3198 13.6303 14.5017C13.4712 14.6835 13.3125 14.7063 13.0398 14.5701C12.7671 14.4339 11.8897 14.1461 10.8486 13.2178C10.0386 12.4956 9.49189 11.6037 9.33271 11.3311C9.17353 11.0585 9.31581 10.9109 9.45247 10.7752C9.57474 10.653 9.72488 10.457 9.86138 10.2979C9.99789 10.1389 10.0428 10.0252 10.1335 9.84365C10.2242 9.66209 10.179 9.50262 10.1108 9.36641C10.0426 9.2302 9.51323 7.88266 9.27105 7.34376" fill="#27AE60"/>
</svg>
