<svg xmlns="http://www.w3.org/2000/svg" fill="none" viewBox="0 0 12 24">
<path d="M9.42628 13.056H8.02234C5.81629 13.056 3.67701 11.5202 3.67701 7.67982C3.67701 3.68012 5.68276 2.04801 7.72143 2.04801H9.42628V13.056ZM11.6323 -9.53674e-07H7.82204C4.07761 -9.53674e-07 0.902986 2.72047 0.902986 8.00029C0.902986 11.1682 2.44045 13.5043 5.18155 14.6557L0.0670292 23.4878C-0.100345 23.7758 0.067029 24 0.334096 24H2.70752C2.90782 24 3.04227 23.9361 3.10904 23.7758L7.75528 15.104H9.42628V23.7758C9.42628 23.8722 9.52688 24 9.66042 24H11.7329C11.9332 24 12 23.9037 12 23.7443V0.319592C12 0.0963154 11.8665 -9.53674e-07 11.6323 -9.53674e-07Z" fill="currentColor"/>
</svg>